<?xml version="1.0" encoding="utf-8"?>
<!-- Generator: Adobe Illustrator 24.3.0, SVG Export Plug-In . SVG Version: 6.00 Build 0)  -->
<svg version="1.1" id="Layer_1" xmlns="http://www.w3.org/2000/svg" xmlns:xlink="http://www.w3.org/1999/xlink" x="0px" y="0px"
	 viewBox="0 0 180 180" style="enable-background:new 0 0 180 180;" xml:space="preserve">
<style type="text/css">
	.st0{fill:#041E42;}
	.st1{display:none;fill:#FFFFFF;}
	.st2{fill:#FFFFFF;}
</style>
<rect class="st0" width="180" height="180"/>
<rect x="243" y="42.81" class="st0" width="73.19" height="67.25"/>
<g>
	<path class="st1" d="M83.24,167.1c-23.44,0-46.88,0-70.34,0c0-51.39,0-102.78,0-154.21c51.4,0,102.8,0,154.21,0
		c0,26.84,0,53.69,0,80.55c-0.11-0.33-0.23-0.65-0.32-0.99c-1.21-4.67-4.05-7.89-8.65-9.37c-1.14-0.37-1.23-0.91-1.3-1.9
		c-0.36-4.79-0.4-9.65-1.33-14.33c-6.79-34.39-38.81-57.54-73.67-53.08c-21.7,2.78-38.15,13.97-49.38,32.69
		c-6.36,10.6-9.13,22.24-9,34.58c0.01,1.16-0.24,1.72-1.45,2.1c-5.22,1.66-8.75,6.42-8.8,11.85c-0.06,7.01-0.07,14.03,0,21.05
		c0.06,6.12,4.45,11.52,10.52,12.25c4.49,0.54,9.1,0.41,13.64,0.19c2.83-0.14,4.85-1.97,6-4.62c0.16-0.37,0.34-0.72,0.6-1.26
		c3.41,6.92,7.94,12.66,13.7,17.4c5.78,4.76,12.34,8.03,19.65,10.04c-0.36,0.51-0.6,0.82-0.82,1.15c-3.18,4.76-1.89,11.2,2.94,14.25
		C80.59,166.15,81.96,166.55,83.24,167.1z"/>
	<path class="st2" d="M83.24,167.1c-1.27-0.55-2.64-0.94-3.8-1.67c-4.83-3.05-6.11-9.49-2.94-14.25c0.22-0.33,0.46-0.65,0.82-1.15
		c-7.32-2.01-13.87-5.28-19.65-10.04c-5.77-4.75-10.29-10.49-13.7-17.4c-0.26,0.53-0.44,0.89-0.6,1.26c-1.15,2.65-3.17,4.49-6,4.62
		c-4.54,0.22-9.15,0.35-13.64-0.19c-6.06-0.72-10.45-6.12-10.52-12.25c-0.07-7.01-0.06-14.03,0-21.05
		c0.05-5.43,3.58-10.19,8.8-11.85c1.21-0.38,1.46-0.94,1.45-2.1c-0.13-12.33,2.65-23.98,9-34.58
		c11.23-18.72,27.68-29.92,49.38-32.69c34.86-4.46,66.89,18.69,73.67,53.08c0.92,4.68,0.96,9.55,1.33,14.33
		c0.08,0.99,0.16,1.54,1.3,1.9c4.6,1.48,7.45,4.69,8.65,9.37c0.09,0.33,0.21,0.66,0.32,0.99c0,8.02,0,16.04,0,24.05
		c-0.07,0.18-0.17,0.35-0.21,0.53c-1.13,5.21-4.24,8.56-9.32,10.18c-0.42,0.13-0.89,0.88-0.93,1.37
		c-1.63,18.93-17.39,34.09-36.44,34.86c-5.1,0.21-10.2,0.06-15.31,0.11c-0.57,0.01-1.19,0.12-1.69,0.37
		c-1.37,0.68-2.7,1.45-4.04,2.19C93.85,167.1,88.54,167.1,83.24,167.1z M43.95,100.41c0.19,25.72,21.02,46.4,46.52,46.19
		c25.41-0.21,45.98-21.03,45.85-46.39c-0.13-25.57-20.98-46.19-46.51-45.99C64.43,54.4,43.77,75.22,43.95,100.41z M139.08,84.21
		c0.23-0.15,0.53-0.46,0.89-0.56c1.47-0.43,1.63-1.47,1.53-2.79c-0.24-2.89-0.2-5.82-0.63-8.68c-4.26-28.49-31.12-47.76-59.61-42.83
		C56.07,33.7,37.78,56.36,38.85,81.93c0.02,0.44,0.38,0.95,0.73,1.26c0.51,0.44,1.17,0.72,1.66,1.01
		C50.19,62.26,66.1,49.32,90.09,49.3C114.14,49.25,130.08,62.21,139.08,84.21z M151.82,82.31c-0.13-23.43-9.41-41.9-29.12-54.63
		c-20.27-13.09-47.46-12.52-67.18,1.34C37.15,41.93,28.5,59.89,28.49,82.28c1.87,0,3.48,0,5.1,0C31.98,52.45,55.57,25.15,87.16,23.5
		c13.15-0.69,25.25,2.73,35.87,10.54c16.22,11.93,23.75,28.29,23.63,48.26C148.42,82.31,150,82.31,151.82,82.31z M38.81,105.5
		c0-5.01,0.02-10.02-0.01-15.03c-0.01-1.95-0.9-2.88-2.85-2.91c-3.31-0.05-6.62-0.09-9.92,0.01c-4.64,0.14-7.71,3.38-7.73,8.04
		c-0.02,6.61-0.02,13.23,0,19.84c0.02,4.75,3.29,8,8.06,8.03c3.06,0.02,6.11,0.01,9.17,0c2.4-0.01,3.26-0.86,3.27-3.25
		C38.82,115.32,38.81,110.41,38.81,105.5z M141.48,105.46c0,4.86-0.01,9.72,0,14.58c0,2.61,0.82,3.44,3.38,3.44
		c2.96,0.01,5.91,0.01,8.87,0c5.03-0.02,8.25-3.24,8.26-8.29c0.01-6.41,0.01-12.83,0-19.24c-0.01-5.19-3.12-8.36-8.29-8.4
		c-2.96-0.03-5.91-0.02-8.87,0c-2.53,0.01-3.34,0.82-3.34,3.33C141.47,95.74,141.48,100.6,141.48,105.46z M105.59,159.25
		c0.4,0.05,0.74,0.12,1.07,0.12c4.25,0,8.51,0.08,12.76-0.04c13.45-0.38,25.28-8.86,30.06-21.44c1.12-2.94,1.89-5.97,2.01-9.19
		c-1.75,0-3.37,0-5.03,0c-0.05,0.33-0.08,0.57-0.11,0.81c-1.58,12.57-11.28,22.71-23.81,24.32c-4.98,0.64-10.09,0.3-15.14,0.4
		c-0.58,0.01-1.17,0-1.82,0C105.59,156.02,105.59,157.6,105.59,159.25z M136.42,122.47c-6.48,12.81-16.24,21.51-29.39,26.51
		c3.68,0.13,7.31,0.24,10.94,0.09c2.33-0.1,4.75-0.26,6.95-0.96c9.13-2.9,14.5-9.23,16.24-18.63c0.09-0.5-0.04-1.38-0.35-1.54
		C138.65,126.8,137.26,125.07,136.42,122.47z M91.35,161.97c2.1,0,4.2,0.03,6.3-0.01c1.72-0.04,2.69-1.01,2.73-2.72
		c0.04-1.5,0.02-3,0.01-4.5c-0.02-2.11-0.9-3.01-3.02-3.01c-4.05-0.02-8.1-0.03-12.15,0c-3.11,0.02-5.31,2.16-5.31,5.09
		c0,2.91,2.23,5.1,5.29,5.14C87.25,162,89.3,161.97,91.35,161.97z"/>
	<path class="st1" d="M99.16,167.1c1.34-0.74,2.67-1.51,4.04-2.19c0.5-0.25,1.12-0.37,1.69-0.37c5.1-0.05,10.21,0.09,15.31-0.11
		c19.05-0.77,34.82-15.93,36.44-34.86c0.04-0.49,0.51-1.24,0.93-1.37c5.08-1.61,8.2-4.96,9.32-10.18c0.04-0.18,0.14-0.36,0.21-0.53
		c0,16.54,0,33.07,0,49.61C144.46,167.1,121.81,167.1,99.16,167.1z"/>
	<path class="st1" d="M43.95,100.41c-0.18-25.19,20.48-46,45.86-46.2c25.53-0.2,46.38,20.42,46.51,45.99
		c0.13,25.36-20.44,46.18-45.85,46.39C64.97,146.8,44.14,126.13,43.95,100.41z M58.06,108.11c-0.07-0.15-0.15-0.3-0.22-0.44
		c1.4-1.09,2.81-2.19,4.21-3.28c1.87-1.46,3.57-3.05,4.43-5.36c1.65-4.46-0.18-9.1-4.28-10.84c-3.66-1.55-8.16,0.32-10.07,4.18
		c-0.75,1.52-0.44,2.92,0.81,3.67c1.27,0.76,2.64,0.35,3.59-1.06c0.2-0.29,0.37-0.6,0.58-0.87c0.76-0.95,1.65-1.7,2.95-1.23
		c1.33,0.49,1.88,1.53,1.85,2.94c-0.03,1.79-1.09,2.95-2.36,3.98c-1.52,1.23-3.11,2.36-4.58,3.64c-2,1.75-3.18,3.97-3.29,6.67
		c-0.09,2.01,0.92,3.09,2.96,3.12c3.15,0.03,6.3,0.03,9.46,0c1.8-0.02,2.9-1.02,2.92-2.54c0.02-1.61-1.06-2.56-2.99-2.58
		C62.04,108.09,60.05,108.11,58.06,108.11z M77.29,102.88c0-4.25,0.02-8.3-0.01-12.36c-0.01-1.83-0.96-2.91-2.49-2.94
		c-1.57-0.03-2.62,1.11-2.63,2.99c-0.02,4.81-0.03,9.61,0,14.42c0.01,2.15,0.98,3.08,3.16,3.11c1.48,0.02,2.97,0,4.58,0
		c0,0.94-0.02,1.68,0.01,2.42c0.06,1.55,1.08,2.64,2.47,2.69c1.43,0.05,2.55-1.09,2.63-2.7c0.04-0.78,0.01-1.56,0.01-2.45
		c1.07,0,1.92,0.08,2.76-0.02c1.45-0.17,2.41-1.3,2.35-2.64c-0.06-1.37-1.06-2.34-2.56-2.42c-0.82-0.04-1.65-0.01-2.56-0.01
		c0-1.06,0.05-1.86-0.01-2.65c-0.12-1.54-1.2-2.52-2.66-2.47c-1.4,0.05-2.35,1.02-2.43,2.53c-0.04,0.83-0.01,1.66-0.01,2.49
		C78.94,102.88,78.21,102.88,77.29,102.88z M118.82,92.7c-0.44,0.73-0.68,1.16-0.94,1.58c-3.04,4.88-6.1,9.76-9.13,14.65
		c-1,1.61-0.72,3.11,0.64,3.92c1.3,0.78,2.71,0.36,3.68-1.19c4.15-6.61,8.3-13.22,12.41-19.86c1.35-2.17,0.24-4.19-2.31-4.24
		c-2.9-0.06-5.81-0.02-8.71-0.02c-1.15,0-2.3-0.03-3.45,0.01c-1.83,0.07-2.87,1.03-2.86,2.59c0.01,1.54,1.06,2.47,2.91,2.54
		c0.6,0.02,1.2,0.01,1.8,0.01C114.75,92.7,116.65,92.7,118.82,92.7z M102.92,87.99c0.06-1.51-0.79-2.6-2.1-2.86
		c-1.19-0.23-2.4,0.47-2.84,1.69c-0.14,0.37-0.21,0.77-0.29,1.16c-0.99,4.9-1.97,9.8-2.95,14.71c-0.64,3.24-1.32,6.47-1.9,9.72
		c-0.33,1.81,0.5,3.06,1.99,3.29c1.54,0.24,2.64-0.63,3.05-2.4c0.02-0.1,0.03-0.2,0.05-0.3c0.98-4.9,1.97-9.8,2.95-14.71
		C101.58,94.82,102.26,91.33,102.92,87.99z"/>
	<path class="st1" d="M139.08,84.21c-9-22-24.94-34.96-49-34.94c-23.99,0.03-39.9,12.97-48.85,34.92c-0.49-0.29-1.15-0.57-1.66-1.01
		c-0.35-0.3-0.71-0.82-0.73-1.26c-1.07-25.57,17.22-48.23,42.41-52.58c28.49-4.92,55.35,14.35,59.61,42.83
		c0.43,2.86,0.39,5.79,0.63,8.68c0.11,1.31-0.05,2.36-1.53,2.79C139.61,83.75,139.31,84.06,139.08,84.21z"/>
	<path class="st1" d="M151.82,82.31c-1.82,0-3.4,0-5.15,0c0.12-19.98-7.41-36.33-23.63-48.26c-10.62-7.81-22.72-11.23-35.87-10.54
		C55.58,25.16,32,52.46,33.61,82.29c-1.62,0-3.23,0-5.1,0c0.01-22.39,8.66-40.35,27.03-53.26c19.72-13.85,46.91-14.43,67.18-1.34
		C142.41,40.41,151.69,58.87,151.82,82.31z"/>
	<path class="st1" d="M38.81,105.5c0,4.91,0.01,9.82,0,14.73c-0.01,2.39-0.87,3.24-3.27,3.25c-3.06,0.01-6.11,0.02-9.17,0
		c-4.76-0.03-8.04-3.28-8.06-8.03c-0.02-6.61-0.02-13.23,0-19.84c0.02-4.66,3.09-7.89,7.73-8.04c3.3-0.1,6.61-0.06,9.92-0.01
		c1.95,0.03,2.84,0.96,2.85,2.91C38.83,95.48,38.81,100.49,38.81,105.5z"/>
	<path class="st1" d="M141.48,105.46c0-4.86-0.01-9.72,0-14.58c0.01-2.5,0.82-3.31,3.34-3.33c2.96-0.02,5.91-0.03,8.87,0
		c5.17,0.05,8.28,3.21,8.29,8.4c0.01,6.41,0.01,12.83,0,19.24c-0.01,5.05-3.22,8.27-8.26,8.29c-2.96,0.01-5.91,0.01-8.87,0
		c-2.56-0.01-3.37-0.83-3.38-3.44C141.47,115.18,141.48,110.32,141.48,105.46z"/>
	<path class="st1" d="M105.59,159.25c0-1.65,0-3.23,0-5.01c0.65,0,1.23,0.01,1.82,0c5.05-0.1,10.16,0.24,15.14-0.4
		c12.53-1.61,22.23-11.75,23.81-24.32c0.03-0.24,0.07-0.48,0.11-0.81c1.66,0,3.28,0,5.03,0c-0.12,3.22-0.89,6.24-2.01,9.19
		c-4.78,12.58-16.62,21.06-30.06,21.44c-4.25,0.12-8.51,0.04-12.76,0.04C106.33,159.38,105.99,159.3,105.59,159.25z"/>
	<path class="st1" d="M136.42,122.47c0.84,2.61,2.22,4.34,4.39,5.46c0.31,0.16,0.44,1.05,0.35,1.54
		c-1.75,9.4-7.12,15.73-16.24,18.63c-2.2,0.7-4.62,0.86-6.95,0.96c-3.63,0.15-7.26,0.04-10.94-0.09
		C120.18,143.99,129.94,135.28,136.42,122.47z"/>
	<path class="st1" d="M91.35,161.97c-2.05,0-4.1,0.03-6.15-0.01c-3.06-0.05-5.3-2.24-5.29-5.14c0-2.93,2.2-5.07,5.31-5.09
		c4.05-0.03,8.1-0.02,12.15,0c2.11,0.01,2.99,0.9,3.02,3.01c0.02,1.5,0.03,3-0.01,4.5c-0.04,1.71-1.01,2.68-2.73,2.72
		C95.55,162.01,93.45,161.97,91.35,161.97z"/>
	<path class="st2" d="M58.06,108.11c1.99,0,3.98-0.01,5.97,0c1.93,0.02,3.01,0.97,2.99,2.58c-0.02,1.52-1.13,2.52-2.92,2.54
		c-3.15,0.03-6.3,0.03-9.46,0c-2.03-0.02-3.04-1.1-2.96-3.12c0.11-2.7,1.3-4.92,3.29-6.67c1.47-1.28,3.06-2.41,4.58-3.64
		c1.27-1.03,2.32-2.19,2.36-3.98c0.03-1.42-0.53-2.46-1.85-2.94c-1.3-0.48-2.2,0.28-2.95,1.23c-0.22,0.27-0.39,0.58-0.58,0.87
		c-0.95,1.41-2.33,1.82-3.59,1.06c-1.25-0.75-1.56-2.15-0.81-3.67c1.91-3.86,6.41-5.72,10.07-4.18c4.1,1.74,5.93,6.38,4.28,10.84
		c-0.85,2.31-2.55,3.9-4.43,5.36c-1.4,1.09-2.81,2.19-4.21,3.28C57.91,107.81,57.98,107.96,58.06,108.11z"/>
	<path class="st2" d="M77.29,102.88c0.92,0,1.64,0,2.62,0c0-0.83-0.03-1.66,0.01-2.49c0.08-1.5,1.03-2.48,2.43-2.53
		c1.46-0.05,2.54,0.93,2.66,2.47c0.06,0.79,0.01,1.59,0.01,2.65c0.91,0,1.74-0.04,2.56,0.01c1.5,0.08,2.5,1.05,2.56,2.42
		c0.06,1.34-0.9,2.48-2.35,2.64c-0.84,0.1-1.69,0.02-2.76,0.02c0,0.89,0.03,1.67-0.01,2.45c-0.08,1.61-1.21,2.74-2.63,2.7
		c-1.39-0.04-2.41-1.14-2.47-2.69c-0.03-0.74-0.01-1.48-0.01-2.42c-1.61,0-3.1,0.02-4.58,0c-2.17-0.03-3.14-0.96-3.16-3.11
		c-0.02-4.81-0.02-9.61,0-14.42c0.01-1.88,1.06-3.02,2.63-2.99c1.52,0.03,2.48,1.11,2.49,2.94C77.31,94.58,77.29,98.63,77.29,102.88
		z"/>
	<path class="st2" d="M118.82,92.7c-2.17,0-4.07,0-5.96,0c-0.6,0-1.2,0.02-1.8-0.01c-1.84-0.07-2.9-1-2.91-2.54
		c-0.01-1.56,1.02-2.52,2.86-2.59c1.15-0.04,2.3-0.01,3.45-0.01c2.9,0,5.81-0.04,8.71,0.02c2.55,0.05,3.66,2.07,2.31,4.24
		c-4.11,6.63-8.26,13.25-12.41,19.86c-0.97,1.54-2.38,1.96-3.68,1.19c-1.36-0.81-1.63-2.31-0.64-3.92
		c3.03-4.89,6.09-9.77,9.13-14.65C118.14,93.86,118.38,93.43,118.82,92.7z"/>
	<path class="st2" d="M102.92,87.99c-0.66,3.34-1.34,6.82-2.03,10.3c-0.98,4.9-1.96,9.81-2.95,14.71c-0.02,0.1-0.03,0.2-0.05,0.3
		c-0.41,1.77-1.51,2.64-3.05,2.4c-1.49-0.23-2.32-1.48-1.99-3.29c0.58-3.25,1.25-6.48,1.9-9.72c0.98-4.9,1.96-9.81,2.95-14.71
		c0.08-0.39,0.15-0.79,0.29-1.16c0.44-1.22,1.65-1.92,2.84-1.69C102.13,85.4,102.99,86.49,102.92,87.99z"/>
</g>
</svg>
