<?xml version="1.0" encoding="utf-8"?>
<!-- Generator: Adobe Illustrator 24.3.0, SVG Export Plug-In . SVG Version: 6.00 Build 0)  -->
<svg version="1.1" id="Layer_1" xmlns="http://www.w3.org/2000/svg" xmlns:xlink="http://www.w3.org/1999/xlink" x="0px" y="0px"
	 viewBox="0 0 180 180" style="enable-background:new 0 0 180 180;" xml:space="preserve">
<style type="text/css">
	.st0{fill:#041E42;}
	.st1{fill:none;stroke:#FFFFFF;stroke-miterlimit:10;}
	.st2{fill:#FFFFFF;}
</style>
<rect class="st0" width="180" height="180"/>
<g>
	<path class="st1" d="M101.49,64.48c-0.92-0.39-1.89-0.69-2.74-1.2c-2.62-1.56-5.2-3.18-7.75-4.84c-0.74-0.49-1.26-0.47-2,0
		c-2.56,1.66-5.18,3.22-7.74,4.86c-1.79,1.15-3.58,1.39-5.39,0.14c-1.65-1.13-2.14-2.92-1.52-5.31c0.73-2.85,1.44-5.7,2.26-8.52
		c0.26-0.88,0.06-1.35-0.62-1.88c-2.36-1.85-4.67-3.75-6.99-5.65c-1.87-1.52-2.5-3.19-1.9-5.03c0.69-2.11,2.25-2.99,4.38-3.11
		c2.88-0.15,5.77-0.42,8.65-0.49c1.29-0.03,2-0.42,2.46-1.69c0.97-2.71,2.14-5.36,3.19-8.04c0.76-1.94,2.1-3.11,4.22-3.11
		c2.11,0,3.46,1.16,4.23,3.1c1.1,2.78,2.29,5.53,3.33,8.33c0.38,1.03,0.94,1.35,1.99,1.39c3.1,0.12,6.2,0.35,9.29,0.55
		c2.02,0.13,3.44,1.1,4.06,3.07c0.63,1.99-0.11,3.57-1.64,4.83c-2.4,1.97-4.8,3.94-7.24,5.85c-0.68,0.54-0.88,1-0.63,1.88
		c0.89,3.14,1.73,6.29,2.44,9.47C106.43,61.81,104.32,64.28,101.49,64.48z M73.38,39.02c2.67,2.17,4.99,4.12,7.38,5.96
		c1.42,1.09,1.83,2.32,1.32,4.05c-0.87,2.95-1.57,5.95-2.41,9.2c2.92-1.82,5.62-3.44,8.25-5.17c1.44-0.94,2.7-0.95,4.14-0.01
		c2.63,1.72,5.33,3.35,8.26,5.17c-0.86-3.3-1.6-6.35-2.45-9.36c-0.45-1.61-0.05-2.77,1.26-3.78c2.16-1.66,4.25-3.41,6.36-5.14
		c0.29-0.24,0.51-0.55,0.89-0.96c-3.46-0.22-6.66-0.46-9.86-0.63c-1.41-0.07-2.27-0.72-2.77-2.02c-0.63-1.65-1.3-3.27-1.97-4.9
		c-0.55-1.34-1.11-2.68-1.82-4.36c-1.29,3.21-2.47,6.01-3.54,8.85c-0.6,1.58-1.54,2.41-3.3,2.47C80.04,38.5,76.95,38.78,73.38,39.02
		z"/>
	<path class="st1" d="M64.28,77.75c-0.4,0.57-1.04,1.88-2.04,2.79c-2.18,1.97-4.51,3.78-6.84,5.57c-0.83,0.64-1.11,1.19-0.79,2.27
		c0.83,2.76,1.48,5.58,2.24,8.36c0.56,2.04,0.27,3.83-1.46,5.19c-1.59,1.24-3.4,1.2-5.51-0.11c-2.55-1.58-5.1-3.15-7.61-4.78
		c-0.77-0.5-1.34-0.54-2.14-0.02c-2.55,1.67-5.17,3.22-7.74,4.87c-1.8,1.15-3.61,1.38-5.38,0.07c-1.77-1.31-2.08-3.11-1.52-5.17
		c0.77-2.84,1.45-5.7,2.27-8.52c0.27-0.92,0.11-1.44-0.64-2.02c-2.37-1.84-4.66-3.77-7-5.64c-1.59-1.27-2.46-2.82-1.88-4.9
		c0.54-1.96,1.89-2.99,4.31-3.18c2.99-0.24,5.98-0.45,8.97-0.52c1.22-0.03,1.79-0.49,2.19-1.59c1.01-2.7,2.12-5.37,3.21-8.04
		c0.91-2.22,2.31-3.28,4.3-3.22c2.11,0.07,3.43,1.22,4.19,3.16c1.09,2.79,2.29,5.53,3.34,8.33c0.36,0.96,0.87,1.28,1.86,1.33
		c3.26,0.15,6.52,0.33,9.77,0.62C62.75,72.81,64.33,74.67,64.28,77.75z M24.56,77.57c2.45,1.98,4.48,3.82,6.7,5.37
		c2.08,1.45,2.62,3.09,1.82,5.49c-0.87,2.63-1.45,5.37-2.24,8.36c2.89-1.81,5.52-3.35,8.04-5.05c1.59-1.08,2.96-1.11,4.56-0.03
		c2.55,1.71,5.2,3.27,7.83,4.92c0.07-0.19,0.12-0.25,0.11-0.29c-0.55-2.17-1.09-4.35-1.68-6.51c-1.42-5.26-1.37-4.51,2.55-7.73
		c1.74-1.43,3.51-2.85,5.59-4.54c-3.51-0.23-6.53-0.51-9.55-0.58c-1.97-0.04-2.98-0.94-3.63-2.73c-1.01-2.78-2.2-5.5-3.47-8.65
		c-1.35,3.34-2.57,6.27-3.73,9.22c-0.53,1.35-1.41,2.02-2.88,2.1C31.39,77.07,28.2,77.32,24.56,77.57z"/>
	<path class="st1" d="M150.37,103.03c-0.92-0.38-1.9-0.66-2.75-1.17c-2.62-1.56-5.21-3.17-7.75-4.84c-0.8-0.52-1.37-0.47-2.14,0.03
		c-2.56,1.66-5.15,3.25-7.75,4.85c-2.02,1.24-3.83,1.26-5.37,0.05c-1.67-1.31-2.04-3.03-1.51-5.03c0.78-2.89,1.46-5.81,2.31-8.67
		c0.28-0.96,0.03-1.44-0.69-2.01c-2.32-1.81-4.57-3.71-6.87-5.54c-1.64-1.3-2.6-2.87-1.96-5.01c0.63-2.12,2.19-3.05,4.33-3.16
		c3.04-0.17,6.09-0.4,9.13-0.53c0.98-0.04,1.51-0.33,1.88-1.31c1.04-2.8,2.24-5.55,3.33-8.33c0.76-1.93,2.07-3.1,4.18-3.17
		c1.99-0.07,3.41,1,4.31,3.2c1.1,2.67,2.23,5.33,3.21,8.04c0.44,1.23,1.12,1.56,2.35,1.6c3.05,0.1,6.09,0.34,9.13,0.54
		c1.96,0.13,3.32,1.11,3.94,2.99c0.63,1.91,0.02,3.5-1.46,4.73c-2.46,2.06-5.01,4.02-7.44,6.11c-0.39,0.34-0.66,1.18-0.54,1.69
		c0.73,3.18,1.65,6.31,2.37,9.48C155.24,100.31,153.21,102.79,150.37,103.03z M138.81,65.57c-1.29,3.21-2.47,5.94-3.5,8.73
		c-0.63,1.71-1.62,2.59-3.52,2.65c-3.07,0.09-6.13,0.38-9.59,0.61c2.66,2.16,4.97,4.11,7.37,5.95c1.42,1.09,1.84,2.31,1.33,4.05
		c-0.87,2.96-1.57,5.96-2.41,9.21c2.33-1.45,4.55-2.57,6.46-4.09c2.68-2.13,5.02-2.19,7.72-0.03c1.9,1.52,4.13,2.63,6.48,4.09
		c-0.88-3.37-1.61-6.37-2.46-9.34c-0.45-1.6-0.07-2.77,1.25-3.78c2.08-1.59,4.08-3.28,6.11-4.93c0.37-0.3,0.71-0.65,1.27-1.17
		c-3.42-0.22-6.45-0.5-9.49-0.58c-1.9-0.05-2.89-0.94-3.52-2.65C141.28,71.51,140.11,68.78,138.81,65.57z"/>
	<path class="st1" d="M82.29,134.15c-0.39,0.58-0.98,1.93-1.97,2.83c-2.29,2.08-4.81,3.91-7.17,5.94c-0.39,0.34-0.66,1.18-0.54,1.69
		c0.66,2.86,1.42,5.7,2.2,8.54c0.58,2.1,0.35,3.94-1.46,5.34c-1.59,1.23-3.39,1.16-5.52-0.16c-2.54-1.58-5.1-3.14-7.6-4.78
		c-0.8-0.52-1.37-0.47-2.14,0.02c-2.56,1.66-5.15,3.26-7.75,4.85c-2.02,1.24-3.83,1.27-5.37,0.05c-1.67-1.31-2.05-3.03-1.51-5.03
		c0.78-2.89,1.46-5.8,2.31-8.67c0.28-0.96,0.03-1.44-0.69-2.01c-2.32-1.81-4.57-3.71-6.87-5.54c-1.64-1.3-2.6-2.87-1.96-5.01
		c0.63-2.12,2.19-3.05,4.33-3.16c3.04-0.17,6.09-0.4,9.13-0.53c0.97-0.04,1.51-0.32,1.88-1.31c1.04-2.8,2.24-5.55,3.33-8.33
		c0.76-1.93,2.06-3.1,4.18-3.18c1.99-0.07,3.41,1,4.32,3.2c1.1,2.67,2.23,5.33,3.21,8.04c0.44,1.22,1.12,1.56,2.35,1.6
		c3.15,0.11,6.31,0.31,9.45,0.6C80.69,129.34,82.25,131.14,82.29,134.15z M75.82,134.06c-2.5-0.15-4.47-0.27-6.44-0.39
		c-6.55-0.41-5.41,0.19-7.7-5.37c-0.8-1.93-1.59-3.87-2.53-6.17c-1.3,3.23-2.47,6.02-3.54,8.86c-0.6,1.58-1.53,2.42-3.3,2.48
		c-3.12,0.11-6.23,0.39-9.75,0.63c2.66,2.16,4.97,4.11,7.36,5.95c1.42,1.09,1.84,2.31,1.33,4.05c-0.87,2.96-1.57,5.96-2.41,9.21
		c2.19-1.37,4.13-2.59,6.08-3.8c4.64-2.87,3.79-2.94,8.47-0.03c1.95,1.21,3.88,2.43,6.1,3.81c-0.86-3.33-1.56-6.29-2.42-9.2
		c-0.51-1.74-0.09-2.95,1.33-4.04C70.82,138.22,73.12,136.26,75.82,134.06z"/>
	<path class="st1" d="M120.78,115.67c2.01,0.09,3.42,1.06,4.19,2.93c1.11,2.72,2.26,5.43,3.26,8.19c0.48,1.32,1.2,1.73,2.57,1.76
		c2.99,0.06,5.98,0.33,8.97,0.53c1.96,0.13,3.32,1.12,3.94,3c0.63,1.91,0.01,3.5-1.47,4.73c-2.42,2.02-4.87,4.02-7.36,5.96
		c-0.75,0.58-0.91,1.1-0.64,2.02c0.81,2.77,1.5,5.57,2.22,8.36c0.63,2.42,0.15,4.15-1.46,5.34c-1.62,1.19-3.39,1.15-5.52-0.17
		c-2.5-1.55-5.02-3.07-7.46-4.71c-0.91-0.61-1.55-0.53-2.42,0.04c-2.51,1.64-5.06,3.2-7.61,4.77c-2.02,1.24-3.83,1.26-5.37,0.04
		c-1.66-1.31-2.04-3.04-1.5-5.04c0.76-2.84,1.43-5.7,2.28-8.52c0.32-1.07,0.05-1.63-0.78-2.27c-2.29-1.76-4.49-3.64-6.75-5.43
		c-1.64-1.3-2.59-2.87-1.95-5.02c0.63-2.12,2.2-3.04,4.34-3.16c3.04-0.16,6.09-0.4,9.13-0.52c0.99-0.04,1.51-0.35,1.87-1.32
		c1.08-2.9,2.28-5.76,3.45-8.63C117.44,116.76,118.81,115.8,120.78,115.67z M110.5,153.3c3.01-1.87,5.78-3.56,8.52-5.32
		c1.23-0.79,2.37-0.82,3.58-0.03c0.71,0.47,1.45,0.91,2.17,1.36c2.04,1.27,4.08,2.53,6.4,3.97c-0.9-3.42-1.68-6.46-2.5-9.5
		c-0.4-1.46-0.05-2.58,1.16-3.52c2.07-1.6,4.08-3.28,6.11-4.94c0.42-0.34,0.8-0.72,1.42-1.28c-2.42-0.14-4.44-0.26-6.46-0.39
		c-6.36-0.41-5.27,0.15-7.49-5.21c-0.82-1.98-1.62-3.98-2.58-6.33c-1.28,3.18-2.46,5.92-3.49,8.71c-0.63,1.71-1.61,2.6-3.51,2.65
		c-3.07,0.09-6.13,0.38-9.6,0.61c2.66,2.16,4.97,4.11,7.36,5.95c1.42,1.09,1.84,2.3,1.34,4.05
		C112.04,147.05,111.34,150.05,110.5,153.3z"/>
	<path class="st2" d="M73.38,39.02c3.58-0.24,6.66-0.52,9.75-0.62c1.77-0.06,2.71-0.89,3.3-2.47c1.07-2.84,2.25-5.63,3.54-8.85
		c0.7,1.68,1.27,3.02,1.82,4.36c0.67,1.63,1.35,3.26,1.97,4.9c0.49,1.3,1.36,1.95,2.77,2.02c3.2,0.17,6.4,0.4,9.86,0.63
		c-0.38,0.41-0.6,0.72-0.89,0.96c-2.11,1.73-4.2,3.48-6.36,5.14c-1.32,1.01-1.71,2.17-1.26,3.78c0.85,3.01,1.6,6.06,2.45,9.36
		c-2.93-1.83-5.63-3.45-8.26-5.17c-1.44-0.94-2.71-0.93-4.14,0.01c-2.63,1.73-5.33,3.35-8.25,5.17c0.84-3.25,1.54-6.25,2.41-9.2
		c0.51-1.74,0.1-2.96-1.32-4.05C78.36,43.14,76.05,41.19,73.38,39.02z"/>
	<path class="st2" d="M24.56,77.57c3.65-0.25,6.83-0.5,10.01-0.66c1.47-0.07,2.36-0.74,2.88-2.1c1.15-2.95,2.37-5.88,3.73-9.22
		c1.28,3.15,2.46,5.86,3.47,8.65c0.65,1.78,1.66,2.68,3.63,2.73c3.02,0.07,6.04,0.35,9.55,0.58c-2.09,1.69-3.85,3.11-5.59,4.54
		c-3.92,3.22-3.96,2.47-2.55,7.73c0.58,2.16,1.12,4.34,1.68,6.51c0.01,0.04-0.03,0.1-0.11,0.29c-2.63-1.64-5.28-3.2-7.83-4.92
		c-1.6-1.08-2.97-1.04-4.56,0.03c-2.52,1.7-5.14,3.25-8.04,5.05c0.79-2.99,1.36-5.73,2.24-8.36c0.8-2.4,0.26-4.04-1.82-5.49
		C29.04,81.38,27.01,79.55,24.56,77.57z"/>
	<path class="st2" d="M138.81,65.57c1.3,3.21,2.47,5.94,3.5,8.73c0.63,1.71,1.61,2.6,3.52,2.65c3.04,0.08,6.07,0.36,9.49,0.58
		c-0.56,0.52-0.89,0.87-1.27,1.17c-2.03,1.65-4.04,3.34-6.11,4.93c-1.32,1.01-1.7,2.18-1.25,3.78c0.84,2.97,1.58,5.97,2.46,9.34
		c-2.35-1.46-4.58-2.57-6.48-4.09c-2.7-2.16-5.04-2.1-7.72,0.03c-1.91,1.52-4.13,2.64-6.46,4.09c0.84-3.25,1.54-6.25,2.41-9.21
		c0.51-1.74,0.09-2.96-1.33-4.05c-2.4-1.84-4.71-3.8-7.37-5.95c3.47-0.23,6.53-0.52,9.59-0.61c1.9-0.06,2.89-0.93,3.52-2.65
		C136.34,71.51,137.52,68.78,138.81,65.57z"/>
	<path class="st2" d="M75.82,134.06c-2.7,2.2-5.01,4.16-7.41,5.99c-1.43,1.09-1.84,2.3-1.33,4.04c0.85,2.91,1.55,5.87,2.42,9.2
		c-2.22-1.39-4.16-2.61-6.1-3.81c-4.68-2.91-3.84-2.84-8.47,0.03c-1.95,1.21-3.89,2.43-6.08,3.8c0.84-3.25,1.55-6.26,2.41-9.21
		c0.51-1.74,0.09-2.96-1.33-4.05c-2.4-1.84-4.71-3.8-7.36-5.95c3.52-0.24,6.63-0.52,9.75-0.63c1.77-0.06,2.7-0.9,3.3-2.48
		c1.07-2.83,2.25-5.63,3.54-8.86c0.94,2.3,1.74,4.24,2.53,6.17c2.29,5.56,1.15,4.96,7.7,5.37
		C71.35,133.79,73.32,133.91,75.82,134.06z"/>
	<path class="st2" d="M110.5,153.3c0.84-3.25,1.55-6.25,2.41-9.21c0.51-1.74,0.08-2.96-1.34-4.05c-2.39-1.84-4.71-3.79-7.36-5.95
		c3.48-0.23,6.54-0.52,9.6-0.61c1.9-0.06,2.88-0.94,3.51-2.65c1.03-2.79,2.21-5.53,3.49-8.71c0.96,2.36,1.76,4.35,2.58,6.33
		c2.22,5.36,1.14,4.8,7.49,5.21c2.02,0.13,4.04,0.24,6.46,0.39c-0.62,0.56-1,0.94-1.42,1.28c-2.03,1.66-4.04,3.33-6.11,4.94
		c-1.22,0.94-1.56,2.06-1.16,3.52c0.83,3.03,1.61,6.08,2.5,9.5c-2.32-1.44-4.36-2.7-6.4-3.97c-0.73-0.45-1.46-0.89-2.17-1.36
		c-1.21-0.79-2.35-0.76-3.58,0.03C116.28,149.74,113.5,151.43,110.5,153.3z"/>
</g>
<rect x="243" y="42.81" class="st0" width="73.19" height="67.25"/>
</svg>
