<?xml version="1.0" encoding="utf-8"?>
<!-- Generator: Adobe Illustrator 24.3.0, SVG Export Plug-In . SVG Version: 6.00 Build 0)  -->
<svg version="1.1" id="Layer_1" xmlns="http://www.w3.org/2000/svg" xmlns:xlink="http://www.w3.org/1999/xlink" x="0px" y="0px"
	 viewBox="0 0 180 180" style="enable-background:new 0 0 180 180;" xml:space="preserve">
<style type="text/css">
	.st0{fill:#041E42;}
	.st1{display:none;fill:#FFFFFF;}
	.st2{fill:#FFFFFF;}
</style>
<rect class="st0" width="180" height="180"/>
<rect x="243" y="42.81" class="st0" width="73.19" height="67.25"/>
<g>
	<path class="st1" d="M15.47,164.53c0-49.75,0-99.39,0-149.06c49.69,0,99.38,0,149.06,0c0,49.69,0,99.37,0,149.06
		C114.86,164.53,65.18,164.53,15.47,164.53z M129.9,140.88c5.82,0.06,9.67-2.63,10.66-7.81c0.37-1.96,0.26-4.05,0.09-6.05
		c-0.23-2.8,0.34-3.7,2.98-4.58c1.96-0.65,3.94-1.38,5.71-2.42c3.21-1.89,4.85-4.84,4.11-8.57c-0.46-2.32-1.44-4.59-2.48-6.74
		c-1.19-2.47-1-3.56,1.14-5.36c1.54-1.3,3.06-2.71,4.24-4.33c2.44-3.33,2.48-6.91,0.04-10.24c-1.3-1.77-2.99-3.27-4.64-4.75
		c-1.67-1.51-1.96-2.85-0.91-4.86c0.83-1.58,1.68-3.18,2.21-4.87c1.56-4.99-0.06-8.9-4.7-11.3c-1.66-0.86-3.49-1.4-5.27-2
		c-1.99-0.67-2.68-1.89-2.49-3.97c0.18-1.91,0.31-3.87,0.09-5.77c-0.55-4.75-3.72-7.84-8.46-8.3c-1.81-0.18-3.67-0.06-5.49,0.12
		c-2.32,0.23-3.41-0.55-4.12-2.82c-0.61-1.92-1.29-3.88-2.31-5.6c-2.3-3.86-5.82-5.31-10.18-4.15c-2.03,0.54-3.93,1.56-5.85,2.47
		c-1.91,0.91-3.35,0.46-4.65-1.21c-1.17-1.51-2.46-3.02-3.98-4.16c-3.74-2.82-7.83-2.78-11.52,0.09c-1.55,1.2-2.83,2.76-4.13,4.25
		c-1.42,1.64-2.98,1.9-4.87,0.83c-1.42-0.81-2.89-1.6-4.44-2.08c-5.04-1.59-9.43,0.23-11.85,4.91c-0.77,1.49-1.28,3.13-1.77,4.74
		c-0.67,2.19-1.82,2.94-4.06,2.73c-1.77-0.16-3.58-0.24-5.35-0.09c-5.04,0.45-8.24,3.66-8.69,8.71c-0.15,1.77-0.02,3.58,0.16,5.35
		c0.22,2.23-0.66,3.43-2.78,4c-1.85,0.5-3.74,1.07-5.41,1.99c-4,2.2-5.6,5.91-4.45,10.31c0.51,1.94,1.34,3.84,2.3,5.6
		c1.05,1.91,1.02,4.01-1.36,5.36c-4.27,2.43-6.48,7.3-5.54,11.54c0.77,3.48,3.15,5.79,5.93,7.78c1.86,1.33,2.12,2.73,1.09,4.76
		c-0.83,1.63-1.7,3.28-2.24,5.02c-1.56,5.04,0.18,9.14,4.88,11.53c1.49,0.75,3.15,1.23,4.77,1.65c2.18,0.57,3,1.75,2.81,3.97
		c-0.17,1.97-0.32,3.98-0.09,5.92c0.44,3.85,2.51,6.71,6.36,7.59c2.44,0.56,5.07,0.52,7.59,0.43c2.12-0.08,3.35,0.6,4.06,2.6
		c0.77,2.17,1.5,4.44,2.74,6.34c2.15,3.31,5.46,4.64,9.33,3.8c1.99-0.43,3.94-1.29,5.75-2.26c2.34-1.25,3.67-1.07,5.39,1.01
		c1.1,1.34,2.28,2.66,3.62,3.74c3.77,3.03,8.02,3.12,11.88,0.2c1.44-1.09,2.69-2.51,3.79-3.96c1.44-1.9,2.82-2.29,4.97-1.2
		c1.63,0.83,3.29,1.67,5.03,2.19c4.7,1.42,8.58-0.1,10.99-4.37c0.96-1.7,1.53-3.64,2.13-5.52c0.61-1.92,1.92-2.86,3.92-2.58
		C127.68,140.66,128.79,140.76,129.9,140.88z"/>
	<path class="st2" d="M129.9,140.88c-1.1-0.12-2.21-0.22-3.31-0.37c-2-0.28-3.31,0.66-3.92,2.58c-0.6,1.88-1.17,3.82-2.13,5.52
		c-2.4,4.27-6.29,5.79-10.99,4.37c-1.74-0.53-3.4-1.37-5.03-2.19c-2.15-1.09-3.53-0.7-4.97,1.2c-1.1,1.45-2.35,2.86-3.79,3.96
		c-3.86,2.93-8.1,2.83-11.88-0.2c-1.34-1.08-2.52-2.41-3.62-3.74c-1.71-2.08-3.04-2.26-5.39-1.01c-1.81,0.97-3.76,1.82-5.75,2.26
		c-3.87,0.84-7.18-0.49-9.33-3.8c-1.24-1.91-1.97-4.17-2.74-6.34c-0.71-2-1.94-2.68-4.06-2.6c-2.53,0.1-5.15,0.13-7.59-0.43
		c-3.85-0.88-5.92-3.74-6.36-7.59c-0.22-1.95-0.08-3.96,0.09-5.92c0.19-2.22-0.63-3.4-2.81-3.97c-1.63-0.42-3.28-0.9-4.77-1.65
		c-4.71-2.39-6.45-6.49-4.88-11.53c0.54-1.74,1.41-3.39,2.24-5.02c1.04-2.03,0.78-3.43-1.09-4.76c-2.78-1.99-5.16-4.29-5.93-7.78
		c-0.94-4.24,1.27-9.12,5.54-11.54c2.37-1.35,2.41-3.45,1.36-5.36c-0.97-1.76-1.8-3.66-2.3-5.6c-1.15-4.4,0.45-8.12,4.45-10.31
		c1.67-0.92,3.56-1.49,5.41-1.99c2.13-0.58,3-1.77,2.78-4c-0.17-1.77-0.31-3.58-0.16-5.35c0.44-5.05,3.65-8.25,8.69-8.71
		c1.77-0.16,3.58-0.08,5.35,0.09c2.25,0.21,3.39-0.53,4.06-2.73c0.49-1.61,1-3.25,1.77-4.74c2.43-4.68,6.81-6.5,11.85-4.91
		c1.55,0.49,3.02,1.28,4.44,2.08c1.89,1.07,3.45,0.81,4.87-0.83c1.29-1.49,2.58-3.05,4.13-4.25c3.69-2.87,7.78-2.91,11.52-0.09
		c1.52,1.14,2.81,2.65,3.98,4.16c1.29,1.67,2.74,2.11,4.65,1.21c1.91-0.91,3.82-1.93,5.85-2.47c4.36-1.16,7.88,0.29,10.18,4.15
		c1.02,1.72,1.7,3.68,2.31,5.6c0.72,2.27,1.81,3.05,4.12,2.82c1.82-0.18,3.68-0.3,5.49-0.12c4.74,0.47,7.91,3.56,8.46,8.3
		c0.22,1.9,0.09,3.86-0.09,5.77c-0.2,2.08,0.5,3.3,2.49,3.97c1.78,0.6,3.61,1.14,5.27,2c4.64,2.4,6.27,6.31,4.7,11.3
		c-0.53,1.69-1.38,3.29-2.21,4.87c-1.05,2.01-0.77,3.35,0.91,4.86c1.64,1.48,3.34,2.98,4.64,4.75c2.44,3.33,2.41,6.92-0.04,10.24
		c-1.19,1.61-2.7,3.03-4.24,4.33c-2.14,1.8-2.33,2.89-1.14,5.36c1.04,2.15,2.01,4.42,2.48,6.74c0.74,3.72-0.9,6.68-4.11,8.57
		c-1.77,1.04-3.75,1.76-5.71,2.42c-2.64,0.88-3.21,1.78-2.98,4.58c0.17,2.01,0.28,4.1-0.09,6.05
		C139.57,138.25,135.72,140.94,129.9,140.88z M130.89,134.47c3.09,0.21,4.04-0.8,3.73-3.85c-0.05-0.53-0.13-1.06-0.2-1.59
		c-0.84-6.61,1.72-10.68,8.03-12.76c0.96-0.32,1.96-0.56,2.89-0.95c1.98-0.82,2.65-2.77,1.67-4.67c-0.2-0.39-0.44-0.75-0.65-1.13
		c-3.96-7.09-2.83-12.05,3.79-16.76c2.25-1.6,2.38-3.83,0.31-5.68c-1.12-1-2.32-1.92-3.36-2.99c-2.82-2.89-3.67-6.32-2.37-10.16
		c0.51-1.5,1.2-2.96,1.96-4.35c1.48-2.72,0.76-4.63-2.18-5.6c-1.47-0.48-2.96-0.92-4.37-1.55c-3.19-1.43-5.24-3.87-5.56-7.4
		c-0.19-2.15-0.01-4.34,0.12-6.5c0.14-2.44-0.78-3.52-3.25-3.5c-1.11,0.01-2.24,0.27-3.33,0.17c-2.05-0.19-4.21-0.22-6.09-0.94
		c-3.93-1.49-5.4-5.03-6.3-8.82c-0.74-3.11-2.4-3.94-5.32-2.63c-1.72,0.77-3.42,1.59-5.19,2.23c-3.23,1.16-6.22,0.63-8.76-1.74
		c-1.3-1.22-2.5-2.56-3.67-3.91c-1.72-1.98-3.95-2.05-5.74-0.11c-1.28,1.38-2.51,2.83-3.92,4.07c-2.29,2.01-5.05,2.71-7.99,1.88
		c-1.89-0.54-3.73-1.33-5.48-2.23c-2.77-1.44-4.54-0.82-5.63,2.15c-0.67,1.81-1.27,3.66-2.11,5.4c-1.29,2.69-3.55,4.22-6.49,4.52
		c-1.77,0.18-3.58,0.17-5.35,0.03c-4.26-0.33-5.36,0.75-4.89,5.01c0.01,0.05,0.01,0.1,0.02,0.14c0.9,7.57-2.22,12.01-9.66,13.72
		c-0.09,0.02-0.19,0.03-0.29,0.05c-2.76,0.65-3.69,2.8-2.37,5.28c0.79,1.49,1.56,3.01,2.12,4.6c1.29,3.65,0.59,6.99-2.02,9.84
		c-1.11,1.2-2.39,2.26-3.66,3.3c-2.02,1.64-2.05,3.78-0.07,5.53c1.45,1.28,2.93,2.54,4.19,4c2.31,2.67,2.8,5.81,1.62,9.11
		c-0.62,1.72-1.53,3.33-2.35,4.97c-1.03,2.06-0.14,4.19,2.07,4.82c0.56,0.16,1.13,0.28,1.68,0.44c6.78,1.92,9.64,6.25,8.77,13.27
		c-0.59,4.77,0.5,5.74,5.34,5.28c7.97-0.77,10.84,1.96,12.66,7.76c0.3,0.97,0.64,1.93,1.04,2.86c1,2.36,2.81,2.93,5.05,1.74
		c1.45-0.77,2.92-1.52,4.46-2.07c3.82-1.35,7.26-0.61,10.17,2.23c1.11,1.08,2.1,2.28,3.14,3.42c1.72,1.88,3.98,1.84,5.63-0.09
		c0.88-1.03,1.77-2.06,2.69-3.05c3.11-3.31,6.75-4.14,10.94-2.28c1.55,0.69,3.06,1.44,4.63,2.08c2.31,0.95,3.98,0.05,4.63-2.34
		c0.37-1.35,0.72-2.72,1.26-4c1.53-3.64,4.24-5.86,8.24-6.21C127.02,134.34,128.96,134.47,130.89,134.47z"/>
	<path class="st1" d="M130.89,134.47c-1.93,0-3.87-0.14-5.79,0.03c-3.99,0.35-6.7,2.57-8.24,6.21c-0.54,1.28-0.9,2.65-1.26,4
		c-0.65,2.39-2.32,3.29-4.63,2.34c-1.56-0.64-3.08-1.39-4.63-2.08c-4.19-1.86-7.83-1.03-10.94,2.28c-0.93,0.99-1.81,2.02-2.69,3.05
		c-1.65,1.93-3.91,1.97-5.63,0.09c-1.05-1.14-2.04-2.34-3.14-3.42c-2.91-2.84-6.35-3.58-10.17-2.23c-1.54,0.55-3.01,1.3-4.46,2.07
		c-2.25,1.19-4.06,0.62-5.05-1.74c-0.39-0.93-0.73-1.89-1.04-2.86c-1.82-5.8-4.69-8.54-12.66-7.76c-4.84,0.47-5.93-0.51-5.34-5.28
		c0.87-7.02-1.99-11.35-8.77-13.27c-0.56-0.16-1.13-0.28-1.68-0.44c-2.2-0.63-3.1-2.76-2.07-4.82c0.82-1.64,1.73-3.26,2.35-4.97
		c1.19-3.3,0.69-6.44-1.62-9.11c-1.26-1.46-2.74-2.72-4.19-4c-1.98-1.75-1.95-3.89,0.07-5.53c1.27-1.03,2.56-2.09,3.66-3.3
		c2.62-2.84,3.31-6.19,2.02-9.84c-0.56-1.59-1.34-3.11-2.12-4.6c-1.31-2.49-0.39-4.63,2.37-5.28c0.09-0.02,0.19-0.03,0.29-0.05
		c7.44-1.71,10.56-6.15,9.66-13.72c-0.01-0.05-0.01-0.1-0.02-0.14c-0.48-4.26,0.63-5.34,4.89-5.01c1.77,0.14,3.58,0.15,5.35-0.03
		c2.95-0.3,5.21-1.83,6.49-4.52c0.83-1.74,1.44-3.58,2.11-5.4c1.09-2.97,2.86-3.59,5.63-2.15c1.75,0.9,3.59,1.7,5.48,2.23
		c2.94,0.84,5.7,0.14,7.99-1.88c1.41-1.24,2.64-2.69,3.92-4.07c1.8-1.93,4.03-1.87,5.74,0.11c1.17,1.35,2.37,2.69,3.67,3.91
		c2.53,2.38,5.52,2.9,8.76,1.74c1.77-0.64,3.48-1.46,5.19-2.23c2.92-1.31,4.57-0.48,5.32,2.63c0.9,3.79,2.37,7.33,6.3,8.82
		c1.88,0.71,4.04,0.74,6.09,0.94c1.1,0.1,2.22-0.16,3.33-0.17c2.47-0.02,3.39,1.06,3.25,3.5c-0.13,2.16-0.31,4.35-0.12,6.5
		c0.32,3.53,2.37,5.97,5.56,7.4c1.41,0.63,2.9,1.07,4.37,1.55c2.95,0.96,3.67,2.88,2.18,5.6c-0.76,1.39-1.45,2.85-1.96,4.35
		c-1.29,3.84-0.45,7.27,2.37,10.16c1.04,1.07,2.25,1.99,3.36,2.99c2.07,1.85,1.94,4.09-0.31,5.68c-6.63,4.71-7.75,9.66-3.79,16.76
		c0.21,0.38,0.45,0.74,0.65,1.13c0.98,1.9,0.31,3.85-1.67,4.67c-0.94,0.39-1.93,0.63-2.89,0.95c-6.31,2.08-8.87,6.16-8.03,12.76
		c0.07,0.53,0.15,1.06,0.2,1.59C134.93,133.67,133.98,134.69,130.89,134.47z M89.79,133.21c23.9,0.06,43.3-19.26,43.42-43.24
		c0.12-23.95-19.29-43.45-43.3-43.51c-23.9-0.06-43.3,19.26-43.42,43.24C46.37,113.64,65.78,133.15,89.79,133.21z"/>
	<path class="st2" d="M89.79,133.21c-24.01-0.06-43.42-19.57-43.3-43.51c0.12-23.98,19.53-43.3,43.42-43.24
		c24.01,0.06,43.42,19.56,43.3,43.51C133.1,113.95,113.69,133.28,89.79,133.21z M89.82,52.64c-20.46,0.02-37.13,16.7-37.15,37.16
		c-0.02,20.52,16.71,37.26,37.23,37.24c20.46-0.02,37.14-16.7,37.15-37.17C127.06,69.34,110.34,52.62,89.82,52.64z"/>
	<path class="st1" d="M89.82,52.64c20.53-0.02,37.25,16.7,37.23,37.23c-0.02,20.47-16.69,37.15-37.15,37.17
		c-20.52,0.02-37.25-16.71-37.23-37.24C52.68,69.33,69.35,52.66,89.82,52.64z M83.51,97.95c-0.44-0.54-0.74-0.99-1.11-1.36
		c-2.9-2.92-5.79-5.85-8.74-8.72c-1.72-1.68-4.13-1.38-5.14,0.56c-0.68,1.31-0.41,2.63,0.88,3.93c3.79,3.81,7.59,7.61,11.4,11.41
		c2.17,2.16,3.59,2.15,5.79-0.06c7.77-7.77,15.54-15.55,23.31-23.32c0.38-0.38,0.78-0.75,1.07-1.18c0.78-1.16,0.79-2.38-0.01-3.53
		c-0.81-1.17-2.02-1.57-3.32-1.16c-0.74,0.23-1.42,0.82-1.98,1.38c-6.93,6.9-13.84,13.82-20.76,20.74
		C84.52,97,84.13,97.35,83.51,97.95z"/>
	<path class="st2" d="M83.51,97.95c0.63-0.6,1.02-0.96,1.39-1.33c6.92-6.92,13.83-13.84,20.76-20.74c0.57-0.56,1.25-1.15,1.98-1.38
		c1.3-0.41,2.51,0,3.32,1.16c0.8,1.15,0.79,2.37,0.01,3.53c-0.29,0.44-0.69,0.81-1.07,1.18c-7.77,7.78-15.54,15.55-23.31,23.32
		c-2.21,2.21-3.63,2.22-5.79,0.06c-3.8-3.8-7.61-7.59-11.4-11.41c-1.29-1.3-1.56-2.62-0.88-3.93c1.01-1.94,3.42-2.24,5.14-0.56
		c2.94,2.88,5.84,5.81,8.74,8.72C82.77,96.97,83.07,97.41,83.51,97.95z"/>
</g>
</svg>
