<?xml version="1.0" encoding="utf-8"?>
<!-- Generator: Adobe Illustrator 24.3.0, SVG Export Plug-In . SVG Version: 6.00 Build 0)  -->
<svg version="1.1" id="Layer_1" xmlns="http://www.w3.org/2000/svg" xmlns:xlink="http://www.w3.org/1999/xlink" x="0px" y="0px"
	 viewBox="0 0 180 180" style="enable-background:new 0 0 180 180;" xml:space="preserve">
<style type="text/css">
	.st0{fill:#041E42;}
	.st1{display:none;fill:#FFFFFF;}
	.st2{fill:#FFFFFF;}
</style>
<rect class="st0" width="180" height="180"/>
<rect x="243" y="42.81" class="st0" width="73.19" height="67.25"/>
<g>
	<path class="st1" d="M9.32,9.32c53.79,0,107.57,0,161.36,0c0,53.79,0,107.57,0,161.36c-53.79,0-107.57,0-161.36,0
		C9.32,116.89,9.32,63.11,9.32,9.32z M50.63,50.98c-0.93,0-1.61-0.01-2.28,0c-3.3,0.03-6.61-0.1-9.9,0.15
		c-6.21,0.46-11.53,5.38-12.42,11.51c-1.76,12.07-3.39,24.16-5.06,36.25c-1.84,13.28-3.69,26.55-5.51,39.83
		c-0.38,2.8-0.97,5.62-0.91,8.42c0.18,7.94,6.45,13.76,14.57,13.76c32.13,0.01,64.26,0.01,96.39-0.01c1.88,0,3.78-0.11,5.64-0.39
		c21.38-3.26,36-21.45,34.57-42.99c-1.14-17.31-14.14-32.52-31.09-36.11c-3.81-0.81-7.76-0.96-11.8-1.43
		c-0.01-0.04-0.14-0.39-0.18-0.75c-0.67-4.82-1.39-9.64-1.97-14.48c-0.76-6.33-3.72-10.97-9.94-13.02c-1.75-0.58-3.7-0.65-5.57-0.73
		c-2.86-0.11-5.73-0.03-8.76-0.03c0-3.12,0.05-6.04-0.01-8.96c-0.3-14.83-13.88-25.37-28.3-21.98c-10.2,2.4-17.33,11.54-17.47,22.42
		C50.6,45.21,50.63,47.98,50.63,50.98z"/>
	<path class="st2" d="M50.63,50.98c0-3-0.03-5.77,0.01-8.53c0.14-10.88,7.27-20.02,17.45-22.42c14.42-3.39,28.01,7.15,28.3,21.98
		c0.06,2.92,0.01,5.84,0.01,8.96c3.03,0,5.9-0.08,8.76,0.03c1.87,0.07,3.82,0.15,5.57,0.73c6.22,2.05,9.19,6.69,9.94,13.02
		c0.58,4.83,1.3,9.65,1.97,14.48c0.05,0.36,0.17,0.71,0.18,0.75c4.04,0.47,7.99,0.62,11.8,1.43c16.95,3.59,29.95,18.8,31.09,36.11
		c1.42,21.53-13.19,39.73-34.57,42.99c-1.86,0.28-3.76,0.39-5.64,0.39c-32.13,0.02-64.26,0.02-96.39,0.01
		c-8.12,0-14.39-5.82-14.57-13.76c-0.06-2.8,0.53-5.62,0.91-8.42c1.82-13.28,3.67-26.56,5.51-39.83
		c1.68-12.08,3.31-24.18,5.06-36.25c0.89-6.13,6.21-11.05,12.42-11.51c3.29-0.24,6.6-0.11,9.9-0.15
		C49.02,50.97,49.69,50.98,50.63,50.98z M50.63,56.01c-3.39,0-6.62-0.01-9.86,0c-5.87,0.01-9.29,3.17-10.07,9.02
		c-1.77,13.24-3.63,26.46-5.46,39.69c-1.88,13.59-3.79,27.18-5.62,40.77c-0.75,5.62,3.45,10.36,9.17,10.37
		c21.44,0.03,42.88,0.02,64.31,0c0.49,0,1.12-0.06,1.45-0.36c1.54-1.39,3.01-2.87,4.47-4.29c-12.67-11.27-16.31-25.16-12.09-40.92
		c4.24-15.81,14.41-26.02,30.88-29.38c-0.84-5.93-1.54-11.8-2.54-17.62c-0.64-3.75-3.09-6.45-6.82-6.93
		c-3.9-0.51-7.92-0.11-12.05-0.11c0,3.5-0.02,7.05,0.04,10.6c0.01,0.33,0.47,0.74,0.83,0.95c3.01,1.81,4.34,4.83,3.47,8.01
		c-0.86,3.14-3.71,5.28-7,5.25c-3.25-0.03-6.02-2.23-6.84-5.45c-0.79-3.1,0.6-6.12,3.54-7.83c0.39-0.22,0.88-0.7,0.89-1.07
		c0.07-3.5,0.04-7,0.04-10.56c-11.96,0-23.77,0-35.68,0c0,3.59-0.03,7.04,0.04,10.49c0.01,0.41,0.55,0.93,0.97,1.18
		c2.89,1.72,4.23,4.8,3.38,7.9c-0.88,3.21-3.65,5.34-6.94,5.33c-3.26-0.01-6.12-2.24-6.91-5.38c-0.79-3.13,0.57-6.15,3.49-7.87
		c0.39-0.23,0.87-0.71,0.88-1.08C50.66,63.22,50.63,59.72,50.63,56.01z M101.59,155.42c0.07,0.14,0.15,0.27,0.22,0.41
		c0.3,0.02,0.6,0.04,0.89,0.04c7.96,0,15.93,0.02,23.89-0.02c1.56-0.01,3.15-0.16,4.69-0.43c11.99-2.09,20.71-8.76,25.74-19.68
		c12.76-27.67-9.06-50.15-31.29-50.59c-11.23-0.22-20.32,4.66-27.24,13.28c-8.29,10.33-10.81,21.92-6.11,34.6
		c2.25,6.08,6.25,10.97,11.18,15.12c2.35,1.98,2.42,3.05,0.24,5.26C103.1,154.13,102.33,154.75,101.59,155.42z M91.35,50.87
		c0-3.11,0.08-6.09-0.02-9.06C91.05,33.42,85.01,26.27,77,24.77c-8.29-1.55-16.32,2.6-19.77,10.22c-2.31,5.09-1.38,10.47-1.58,15.88
		C67.59,50.87,79.35,50.87,91.35,50.87z M93.78,76.14c1.16,0.02,2.08-0.86,2.12-2.02c0.04-1.18-0.8-2.12-1.96-2.19
		c-1.18-0.07-2.21,0.91-2.22,2.1C91.73,75.18,92.64,76.12,93.78,76.14z M53.24,76.12c1.17-0.04,2.06-0.98,2.02-2.15
		c-0.04-1.14-1.03-2.07-2.16-2.03c-1.16,0.04-2.04,0.98-2.01,2.17C51.12,75.28,52.05,76.16,53.24,76.12z"/>
	<path class="st1" d="M50.63,56.01c0,3.71,0.03,7.21-0.04,10.71c-0.01,0.37-0.5,0.85-0.88,1.08c-2.92,1.73-4.28,4.74-3.49,7.87
		c0.79,3.14,3.65,5.37,6.91,5.38c3.28,0.01,6.06-2.12,6.94-5.33c0.85-3.11-0.49-6.18-3.38-7.9c-0.42-0.25-0.96-0.78-0.97-1.18
		c-0.08-3.45-0.04-6.91-0.04-10.49c11.92,0,23.72,0,35.68,0c0,3.57,0.03,7.06-0.04,10.56c-0.01,0.37-0.5,0.84-0.89,1.07
		c-2.95,1.71-4.34,4.73-3.54,7.83c0.83,3.22,3.59,5.42,6.84,5.45c3.29,0.03,6.14-2.11,7-5.25c0.87-3.18-0.46-6.2-3.47-8.01
		c-0.35-0.21-0.82-0.62-0.83-0.95c-0.06-3.55-0.04-7.1-0.04-10.6c4.13,0,8.15-0.39,12.05,0.11c3.72,0.48,6.17,3.19,6.82,6.93
		c1,5.82,1.7,11.7,2.54,17.62c-16.47,3.36-26.64,13.57-30.88,29.38c-4.22,15.75-0.58,29.64,12.09,40.92
		c-1.46,1.42-2.92,2.9-4.47,4.29c-0.33,0.3-0.96,0.36-1.45,0.36c-21.44,0.02-42.88,0.03-64.31,0c-5.72-0.01-9.92-4.74-9.17-10.37
		c1.82-13.6,3.74-27.18,5.62-40.77c1.83-13.23,3.69-26.45,5.46-39.69c0.78-5.85,4.2-9.01,10.07-9.02
		C44.01,56,47.24,56.01,50.63,56.01z"/>
	<path class="st1" d="M101.59,155.42c0.74-0.66,1.52-1.28,2.21-1.99c2.18-2.21,2.12-3.28-0.24-5.26
		c-4.93-4.15-8.93-9.03-11.18-15.12c-4.69-12.69-2.17-24.28,6.11-34.6c6.92-8.62,16.01-13.5,27.24-13.28
		c22.23,0.44,44.05,22.91,31.29,50.59c-5.04,10.92-13.76,17.59-25.74,19.68c-1.54,0.27-3.12,0.42-4.69,0.43
		c-7.96,0.04-15.93,0.02-23.89,0.02c-0.3,0-0.6-0.03-0.89-0.04C101.74,155.69,101.66,155.55,101.59,155.42z M126.42,151.07
		c17.55-0.89,30.41-14.83,29.41-32.2c-0.78-13.61-11.1-29.38-31.1-28.61c-17.58,0.68-30.7,14.69-29.79,31.56
		C95.88,139.03,110.04,151.44,126.42,151.07z"/>
	<path class="st1" d="M91.35,50.87c-12,0-23.76,0-35.7,0c0.2-5.41-0.73-10.78,1.58-15.88C60.69,27.37,68.72,23.22,77,24.77
		c8.01,1.5,14.05,8.64,14.33,17.04C91.43,44.78,91.35,47.75,91.35,50.87z"/>
	<path class="st1" d="M93.78,76.14c-1.14-0.02-2.06-0.96-2.05-2.11c0-1.2,1.03-2.17,2.22-2.1c1.15,0.07,2,1.01,1.96,2.19
		C95.86,75.29,94.94,76.17,93.78,76.14z"/>
	<path class="st1" d="M53.24,76.12c-1.18,0.04-2.11-0.83-2.14-2.01c-0.03-1.18,0.84-2.13,2.01-2.17c1.13-0.04,2.12,0.89,2.16,2.03
		C55.3,75.14,54.41,76.08,53.24,76.12z"/>
	<path class="st2" d="M126.42,151.07c-16.38,0.37-30.55-12.03-31.48-29.24c-0.91-16.87,12.2-30.88,29.79-31.56
		c19.99-0.78,30.32,15,31.1,28.61C156.83,136.23,143.97,150.17,126.42,151.07z M125.37,95.15c-14.1,0.04-25.47,11.47-25.42,25.56
		c0.04,14.02,11.57,25.46,25.63,25.41c14.08-0.05,25.34-11.47,25.3-25.66C150.83,106.48,139.37,95.11,125.37,95.15z"/>
	<path class="st1" d="M125.37,95.15c14.01-0.04,25.47,11.33,25.51,25.31c0.04,14.19-11.22,25.62-25.3,25.66
		c-14.05,0.05-25.59-11.38-25.63-25.41C99.9,106.62,111.27,95.19,125.37,95.15z M125.43,140.5c9.78,0.01,17.48-7.27,17.81-16.82
		c0.08-2.22-0.86-3.29-3.02-3.29c-9.85-0.02-19.7-0.02-29.56,0c-2.03,0-2.93,0.99-2.93,3.03
		C107.78,132.91,115.63,140.49,125.43,140.5z M123.27,111.87c0-3.62-3.21-6.66-6.97-6.61c-3.67,0.05-6.81,3.15-6.76,6.68
		c0.02,1.43,0.88,2.45,2.19,2.63c1.28,0.17,2.47-0.66,2.7-2.05c0.2-1.18,0.5-2.17,1.93-2.22c1.45-0.05,1.78,0.92,2,2.11
		c0.28,1.5,1.47,2.34,2.79,2.14C122.47,114.34,123.27,113.33,123.27,111.87z M134.64,105.26c-3.44-0.04-6.31,2.41-6.91,5.88
		c-0.3,1.75,0.47,3.07,1.98,3.38c1.5,0.3,2.61-0.6,2.94-2.46c0.19-1.07,0.72-1.73,1.85-1.76c1.2-0.03,1.76,0.6,1.95,1.78
		c0.27,1.74,1.38,2.59,2.89,2.37c1.46-0.21,2.26-1.43,2.08-3.15C141.04,107.96,138.06,105.3,134.64,105.26z"/>
	<path class="st2" d="M125.43,140.5c-9.81-0.01-17.66-7.59-17.69-17.07c-0.01-2.04,0.89-3.03,2.93-3.03c9.85-0.02,19.7-0.02,29.56,0
		c2.16,0,3.09,1.07,3.02,3.29C142.92,133.23,135.21,140.5,125.43,140.5z M137.82,125.47c-8.27,0-16.43,0-24.6,0
		c0.39,4.98,5.83,9.74,11.37,10C131.1,135.79,136.78,131.54,137.82,125.47z"/>
	<path class="st2" d="M123.27,111.87c0,1.46-0.8,2.47-2.12,2.67s-2.52-0.64-2.79-2.14c-0.22-1.19-0.55-2.16-2-2.11
		c-1.43,0.05-1.73,1.04-1.93,2.22c-0.23,1.39-1.42,2.21-2.7,2.05c-1.32-0.17-2.18-1.2-2.19-2.63c-0.04-3.53,3.1-6.63,6.76-6.68
		C120.06,105.2,123.26,108.24,123.27,111.87z"/>
	<path class="st2" d="M134.64,105.26c3.42,0.04,6.41,2.7,6.77,6.04c0.19,1.73-0.62,2.95-2.08,3.15c-1.51,0.22-2.62-0.63-2.89-2.37
		c-0.19-1.18-0.75-1.82-1.95-1.78c-1.13,0.03-1.66,0.7-1.85,1.76c-0.33,1.86-1.43,2.76-2.94,2.46c-1.51-0.31-2.28-1.63-1.98-3.38
		C128.33,107.67,131.2,105.22,134.64,105.26z"/>
	<path class="st1" d="M137.82,125.47c-1.03,6.06-6.72,10.31-13.23,10c-5.54-0.27-10.98-5.02-11.37-10
		C121.38,125.47,129.54,125.47,137.82,125.47z"/>
</g>
</svg>
