<?xml version="1.0" encoding="utf-8"?>
<!-- Generator: Adobe Illustrator 24.3.0, SVG Export Plug-In . SVG Version: 6.00 Build 0)  -->
<svg version="1.1" id="Layer_1" xmlns="http://www.w3.org/2000/svg" xmlns:xlink="http://www.w3.org/1999/xlink" x="0px" y="0px"
	 viewBox="0 0 140 60" style="enable-background:new 0 0 140 60;" xml:space="preserve">
<style type="text/css">
	.st0{clip-path:url(#SVGID_2_);fill:#0069B4;}
	.st1{clip-path:url(#SVGID_4_);fill:#0069B4;}
	.st2{fill:#0069B4;}
	.st3{fill:#FFFFFF;}
	.st4{clip-path:url(#SVGID_6_);fill:#C92717;}
	.st5{fill:#1D1D1B;}
	.st6{fill:#C92717;}
</style>
<g>
	<g>
		<g>
			<defs>
				<path id="SVGID_1_" d="M29.42,18.65L26.44,35.5c-0.21,1.21-1.06,6.31-5.39,5.78c-3.63-0.44-3.66-4.33-3.37-6.28l0.09-0.59h-6.31
					L11.36,35c-0.69,4.03,0.8,12.06,10.18,12.06c8.31,0,10.68-8.44,11.05-10.56l3.18-17.84H29.42z"/>
			</defs>
			<clipPath id="SVGID_2_">
				<use xlink:href="#SVGID_1_"  style="overflow:visible;"/>
			</clipPath>
			<rect x="10.67" y="18.65" class="st0" width="25.1" height="28.41"/>
		</g>
		<g>
			<defs>
				<path id="SVGID_3_" d="M6.89,13.31L2.35,39.93h6.28l1.58-9.53c0.36-2.05,1.05-3.63,2.09-4.74c1.04-1.11,2.37-1.66,4-1.66
					c1.57,0,2.54,0.56,2.91,1.67c0.3,0.79,0.33,1.83,0.11,3.12l-0.55,3.33h6.31l0.52-2.83c0.37-2.14,0.66-3.69,0.69-4.63
					c0.02-0.95-0.22-1.87-0.73-2.76c-0.59-1.05-1.44-1.84-2.56-2.35c-1.12-0.51-2.42-0.77-3.89-0.77c-1.32,0-2.62,0.28-3.9,0.83
					c-1.29,0.55-2.5,1.53-3.65,2.93l1.63-9.21H6.89z"/>
			</defs>
			<clipPath id="SVGID_4_">
				<use xlink:href="#SVGID_3_"  style="overflow:visible;"/>
			</clipPath>
			<rect x="2.35" y="13.31" class="st1" width="23.98" height="26.63"/>
		</g>
		<path class="st2" d="M12.22,34.78l-0.05,0.28c-0.39,2.3-0.07,5.92,2.14,8.53c1.74,2.06,4.32,3.1,7.68,3.1
			c8.82,0,10.62-9.85,10.69-10.27l3.11-17.42h-5.62l-2.92,16.58c-0.87,5.04-3.27,6.1-5.14,6.1c-0.21,0-0.43-0.01-0.65-0.04
			c-1.19-0.14-2.13-0.65-2.77-1.49c-1.27-1.67-1.07-4.19-0.92-5.2l0.03-0.17L12.22,34.78z M21.99,47.42c-3.58,0-6.35-1.13-8.24-3.36
			c-2.36-2.8-2.71-6.66-2.29-9.12l0.16-0.88l7.04,0l-0.16,1c-0.13,0.91-0.33,3.21,0.78,4.65c0.52,0.69,1.29,1.1,2.29,1.22
			c0.19,0.02,0.38,0.03,0.56,0.03c2.31,0,3.79-1.85,4.42-5.5l0.01-0.02l3.02-17.16h7.1L33.4,36.55C33.32,37,31.42,47.42,21.99,47.42
			"/>
		<g>
			<path class="st3" d="M21.71,29.07c-1.89,0-3.43,1.54-3.43,3.43c0,1.89,1.54,3.43,3.43,3.43c1.89,0,3.43-1.54,3.43-3.43
				C25.15,30.61,23.6,29.07,21.71,29.07 M21.71,36.21c-2.05,0-3.72-1.67-3.72-3.71c0-2.05,1.67-3.71,3.72-3.71
				c2.05,0,3.71,1.67,3.71,3.71C25.43,34.55,23.76,36.21,21.71,36.21"/>
			<path class="st2" d="M7.87,39.09l1.52-9.13c0.37-2.14,1.11-3.81,2.21-4.99c1.13-1.2,2.59-1.81,4.35-1.81c1.79,0,2.93,0.67,3.37,2
				c0.32,0.86,0.36,1.99,0.13,3.36l-0.45,2.76h5.36l0.45-2.44l0.16-0.93c0.29-1.66,0.5-2.87,0.52-3.63
				c0.02-0.86-0.21-1.71-0.66-2.52c-0.54-0.96-1.33-1.69-2.35-2.16c-1.05-0.48-2.29-0.73-3.69-0.73c-1.24,0-2.49,0.27-3.71,0.79
				c-1.21,0.52-2.38,1.46-3.47,2.79l-1.15,1.41l1.84-10.45H6.93L2.55,39.09H7.87z M1.42,40.05l4.7-27.58h7.29l-1.44,8.17
				c0.87-0.83,1.78-1.45,2.71-1.85c1.34-0.58,2.72-0.87,4.09-0.87c1.54,0,2.91,0.27,4.09,0.82c1.21,0.56,2.14,1.41,2.78,2.56
				c0.54,0.97,0.81,1.98,0.78,3c-0.01,0.84-0.23,2.08-0.53,3.78l-0.16,0.93l-0.59,3.22h-7.28l0.64-3.87
				c0.21-1.21,0.18-2.17-0.09-2.88c-0.3-0.92-1.11-1.36-2.47-1.36c-1.51,0-2.71,0.5-3.66,1.51c-0.97,1.03-1.63,2.55-1.97,4.5
				l-1.65,9.92H1.42z"/>
			<path class="st3" d="M7.02,13.54h5.12l-1.74,9.89l-0.15,0.85l0.55-0.67l0.88-1.07c1.08-1.32,2.24-2.25,3.43-2.76
				c1.21-0.52,2.45-0.78,3.67-0.78c1.38,0,2.6,0.24,3.64,0.72c1,0.46,1.77,1.17,2.29,2.11c0.45,0.8,0.67,1.63,0.66,2.46
				c-0.02,0.76-0.23,1.96-0.51,3.61c-0.05,0.3-0.11,0.61-0.16,0.93l-0.43,2.34h-5.13l0.43-2.63c0.24-1.39,0.2-2.54-0.13-3.42
				c-0.46-1.37-1.62-2.07-3.47-2.07c-1.8,0-3.29,0.62-4.44,1.85c-1.11,1.19-1.86,2.88-2.24,5.04l-1.5,9.04H2.68L7.02,13.54z
				 M13.54,12.35h-0.27H6.22H6.02l-0.03,0.19L1.33,39.89l-0.04,0.26h0.27h7.02h0.19l0.03-0.19l1.63-9.83
				c0.34-1.92,0.99-3.42,1.94-4.44c0.93-0.99,2.1-1.47,3.57-1.47c1.32,0,2.07,0.41,2.36,1.28c0.26,0.7,0.29,1.65,0.08,2.83
				l-0.62,3.75l-0.04,0.26h0.27h7.05h0.19l0.04-0.18l0.58-3.13l0.1-0.6L26,28.1c0.3-1.71,0.52-2.95,0.53-3.8
				c0.02-1.05-0.25-2.08-0.8-3.07c-0.65-1.16-1.6-2.04-2.83-2.6c-1.19-0.55-2.58-0.83-4.14-0.83c-1.39,0-2.78,0.3-4.14,0.88
				c-0.86,0.37-1.7,0.92-2.5,1.64l1.36-7.71L13.54,12.35z M12.41,13.31H6.83l-4.41,25.9h5.55l1.53-9.23
				c0.37-2.11,1.1-3.77,2.18-4.93c1.1-1.18,2.54-1.78,4.27-1.78c1.74,0,2.84,0.65,3.26,1.92c0.31,0.84,0.35,1.95,0.12,3.3l-0.48,2.9
				h5.59l0.47-2.53c0.06-0.32,0.11-0.63,0.16-0.93c0.3-1.67,0.5-2.87,0.52-3.65c0.02-0.87-0.21-1.75-0.68-2.58
				c-0.55-0.98-1.36-1.72-2.4-2.2c-1.07-0.49-2.33-0.74-3.74-0.74c-1.26,0-2.52,0.27-3.76,0.8c-1.23,0.53-2.41,1.48-3.51,2.83
				l-0.88,1.07L12.41,13.31z M13.27,12.58l-1.48,8.39c0.93-0.94,1.92-1.64,2.93-2.08c1.33-0.57,2.69-0.86,4.05-0.86
				c1.52,0,2.88,0.27,4.04,0.8c1.18,0.55,2.1,1.39,2.73,2.51c0.53,0.95,0.79,1.94,0.77,2.95c-0.02,0.83-0.23,2.06-0.53,3.76
				c-0.05,0.3-0.11,0.6-0.16,0.93l-0.58,3.13h-7.05l0.61-3.75c0.21-1.22,0.18-2.21-0.09-2.94C18.2,24.47,17.35,24,15.94,24
				c-1.54,0-2.77,0.51-3.74,1.55c-0.98,1.05-1.65,2.58-1.99,4.55l-1.63,9.83H1.56l4.66-27.35H13.27z"/>
		</g>
		<g>
			<defs>
				<path id="SVGID_5_" d="M18.14,32.05c0,1.97,1.6,3.57,3.57,3.57c1.97,0,3.57-1.6,3.57-3.57c0-1.98-1.6-3.58-3.57-3.58
					C19.74,28.47,18.14,30.07,18.14,32.05"/>
			</defs>
			<clipPath id="SVGID_6_">
				<use xlink:href="#SVGID_5_"  style="overflow:visible;"/>
			</clipPath>
			<rect x="18.14" y="28.47" class="st4" width="7.15" height="7.15"/>
		</g>
		<g>
			<path class="st3" d="M21.71,28.7c-1.84,0-3.35,1.5-3.35,3.35c0,1.85,1.5,3.35,3.35,3.35c1.85,0,3.35-1.5,3.35-3.35
				C25.06,30.2,23.56,28.7,21.71,28.7 M21.71,35.85c-2.1,0-3.8-1.7-3.8-3.8c0-2.1,1.7-3.8,3.8-3.8c2.09,0,3.8,1.71,3.8,3.8
				C25.51,34.14,23.81,35.85,21.71,35.85"/>
			<path class="st3" d="M12.41,35.01L12.4,35.1c-0.38,2.26-0.07,5.79,2.08,8.34c1.69,2.01,4.22,3.02,7.51,3.02
				c8.63,0,10.4-9.66,10.47-10.07l3.06-17.15h-5.15l-2.89,16.39c-0.9,5.2-3.41,6.29-5.36,6.29c-0.22,0-0.44-0.02-0.67-0.04
				c-1.25-0.15-2.24-0.69-2.92-1.58c-1.29-1.68-1.13-4.19-0.98-5.28L12.41,35.01z M21.99,46.92c-3.43,0-6.07-1.07-7.86-3.18
				c-2.25-2.67-2.58-6.36-2.18-8.71l0.08-0.47l6.03,0l-0.07,0.43c-0.14,0.97-0.34,3.43,0.88,5.02c0.61,0.8,1.49,1.27,2.62,1.41
				c0.21,0.03,0.42,0.04,0.62,0.04c1.78,0,4.07-1.03,4.91-5.91l2.96-16.76h6.08l-3.16,17.68C32.83,36.89,31,46.92,21.99,46.92
				 M11.8,34.28l-0.12,0.69c-0.41,2.4-0.07,6.19,2.24,8.93c1.84,2.18,4.55,3.28,8.07,3.28c9.24,0,11.11-10.24,11.19-10.68l3.22-18
				h-6.64l-2.99,16.97c-0.66,3.79-2.22,5.71-4.65,5.71c-0.19,0-0.39-0.01-0.59-0.04c-1.05-0.13-1.87-0.57-2.44-1.3
				c-1.16-1.51-0.96-3.88-0.82-4.82l0.12-0.74L11.8,34.28z M21.99,47.65c-3.65,0-6.48-1.16-8.41-3.44c-2.41-2.86-2.77-6.8-2.35-9.3
				l0.19-1.08l7.5,0.01l-0.21,1.27c-0.13,0.89-0.32,3.1,0.74,4.48c0.48,0.63,1.2,1.01,2.13,1.12c0.18,0.02,0.36,0.03,0.53,0.03
				c2.18,0,3.59-1.79,4.2-5.31l3.07-17.37h7.56L33.62,36.6C33.55,37.04,31.61,47.65,21.99,47.65"/>
		</g>
	</g>
	<g>
		<path class="st5" d="M39.47,32.99v6.34h1.09v-2.65h2v2.65h1.09v-6.34h-1.09v2.56h-2v-2.56H39.47z M45.67,35.97
			c0.17-0.25,0.4-0.37,0.71-0.37c0.3,0,0.54,0.12,0.71,0.36c0.17,0.25,0.26,0.59,0.26,1.03c0,0.44-0.09,0.79-0.26,1.03
			c-0.17,0.25-0.41,0.37-0.71,0.37c-0.3,0-0.54-0.12-0.71-0.37c-0.17-0.24-0.26-0.59-0.26-1.03C45.41,36.56,45.5,36.22,45.67,35.97
			 M47.85,35.25c-0.37-0.44-0.85-0.65-1.46-0.65c-0.62,0-1.11,0.21-1.47,0.65c-0.37,0.44-0.55,1.02-0.55,1.75
			c0,0.73,0.18,1.31,0.55,1.74c0.37,0.44,0.86,0.66,1.47,0.66c0.62,0,1.11-0.22,1.47-0.66c0.36-0.44,0.55-1.02,0.55-1.75
			C48.4,36.27,48.21,35.69,47.85,35.25"/>
		<polygon class="st6" points="48.9,39.33 52.47,39.33 52.47,38.32 50.22,38.32 52.47,35.68 52.47,34.68 48.9,34.68 48.9,35.68 
			51.15,35.68 48.9,38.32 		"/>
		<path class="st5" d="M54.28,35.97c0.17-0.25,0.41-0.37,0.71-0.37c0.3,0,0.54,0.12,0.71,0.36c0.17,0.25,0.25,0.59,0.25,1.03
			c0,0.44-0.08,0.79-0.25,1.03c-0.17,0.25-0.41,0.37-0.71,0.37c-0.3,0-0.54-0.12-0.71-0.37c-0.17-0.24-0.25-0.59-0.25-1.03
			C54.03,36.56,54.11,36.22,54.28,35.97 M56.46,35.25c-0.37-0.44-0.85-0.65-1.46-0.65c-0.62,0-1.11,0.21-1.47,0.65
			c-0.37,0.44-0.55,1.02-0.55,1.75c0,0.73,0.18,1.31,0.55,1.74c0.37,0.44,0.86,0.66,1.47,0.66c0.61,0,1.1-0.22,1.47-0.66
			c0.36-0.44,0.54-1.02,0.54-1.75S56.83,35.69,56.46,35.25 M57.62,39.33h1.02V35.7h1.17v3.63h1.02V35.7h0.56
			c0.27,0,0.44,0.06,0.52,0.16c0.08,0.11,0.13,0.34,0.13,0.67v2.79h1.01v-2.95c0-0.6-0.13-1.03-0.37-1.3
			c-0.25-0.27-0.65-0.4-1.21-0.4h-3.86V39.33z M70.15,36.69h-1.54l0.76-2.44L70.15,36.69z M66.64,39.33h1.15l0.46-1.51h2.25
			l0.47,1.51h1.21l-2.21-6.34h-1.16L66.64,39.33z M73.49,32.99h-1.05v6.34h1.05V32.99z M74.1,37.49h2.43v-1.1H74.1V37.49z
			 M76.69,39.33h1.43c0.48,0,0.85-0.05,1.08-0.15c0.24-0.1,0.45-0.27,0.63-0.52c0.16-0.21,0.27-0.47,0.35-0.77
			c0.07-0.31,0.11-0.68,0.11-1.13v-3.77h-1.13v3.48c0,0.74-0.08,1.22-0.25,1.46c-0.17,0.24-0.48,0.36-0.94,0.36h-1.29V39.33z
			 M82.16,38.3c-0.07-0.07-0.11-0.18-0.11-0.34c0-0.19,0.05-0.33,0.14-0.41c0.09-0.08,0.25-0.12,0.48-0.12h1.19v0.96H82.6
			C82.38,38.39,82.23,38.36,82.16,38.3 M81.26,35.64h1.68c0.34,0,0.58,0.05,0.71,0.17c0.13,0.11,0.2,0.31,0.2,0.58v0.11h-1.32
			c-0.54,0-0.93,0.12-1.16,0.35c-0.24,0.23-0.35,0.61-0.35,1.14c0,0.42,0.1,0.75,0.3,0.99c0.21,0.23,0.5,0.35,0.87,0.35h2.71v-2.91
			c0-0.58-0.13-1.01-0.39-1.3c-0.26-0.29-0.66-0.44-1.18-0.44h-2.06V35.64z"/>
		<polygon class="st6" points="85.66,39.33 89.22,39.33 89.22,38.32 86.97,38.32 89.22,35.68 89.22,34.68 85.66,34.68 85.66,35.68 
			87.91,35.68 85.66,38.32 		"/>
		<path class="st5" d="M93.14,39.33v-0.97h-1.34c-0.38,0-0.62-0.06-0.74-0.18c-0.12-0.12-0.18-0.35-0.19-0.68h2.27v-0.97h-2.27
			c0.01-0.33,0.08-0.55,0.2-0.68c0.12-0.13,0.37-0.19,0.73-0.19h1.33v-0.97h-1.47c-0.63,0-1.1,0.2-1.43,0.59
			c-0.32,0.4-0.48,0.97-0.48,1.74s0.16,1.35,0.48,1.73c0.32,0.39,0.8,0.59,1.43,0.59H93.14z M96.95,39.33v-0.97h-1.34
			c-0.38,0-0.63-0.06-0.75-0.18c-0.11-0.12-0.18-0.35-0.19-0.68h2.27v-0.97h-2.27c0.01-0.33,0.08-0.55,0.2-0.68
			c0.13-0.13,0.37-0.19,0.74-0.19h1.33v-0.97h-1.47c-0.63,0-1.1,0.2-1.42,0.59c-0.33,0.4-0.49,0.97-0.49,1.74s0.16,1.35,0.48,1.73
			c0.32,0.39,0.8,0.59,1.43,0.59H96.95z M97.59,39.33h1v-3.76h0.35c0.19,0,0.31,0.03,0.36,0.1c0.05,0.06,0.08,0.18,0.08,0.36v0.6
			h0.96v-0.78c0-0.43-0.08-0.74-0.24-0.91c-0.16-0.18-0.43-0.26-0.83-0.26h-1.69V39.33z M101.96,38.3c-0.07-0.07-0.1-0.18-0.1-0.34
			c0-0.19,0.04-0.33,0.13-0.41c0.09-0.08,0.25-0.12,0.49-0.12h1.19v0.96h-1.26C102.18,38.39,102.03,38.36,101.96,38.3 M101.07,35.64
			h1.68c0.34,0,0.58,0.05,0.71,0.17c0.13,0.11,0.2,0.31,0.2,0.58v0.11h-1.33c-0.54,0-0.93,0.12-1.16,0.35
			c-0.23,0.23-0.35,0.61-0.35,1.14c0,0.42,0.1,0.75,0.31,0.99c0.2,0.23,0.49,0.35,0.87,0.35h2.71v-2.91c0-0.58-0.13-1.01-0.4-1.3
			c-0.26-0.29-0.65-0.44-1.17-0.44h-2.06V35.64z M105.42,39.33h0.87v-1.1h-0.87V39.33z M112.82,34.33h-2.04v4.99h0.61v-2.38h1.38
			v-0.71h-1.38v-1.2h1.42V34.33z M113.64,38.93c0.26,0.32,0.58,0.48,0.97,0.48c0.39,0,0.71-0.16,0.98-0.48
			c0.27-0.31,0.4-0.71,0.4-1.18c0-0.47-0.13-0.86-0.4-1.18c-0.27-0.32-0.59-0.48-0.98-0.48c-0.38,0-0.71,0.16-0.97,0.48
			c-0.27,0.32-0.4,0.71-0.4,1.16C113.25,38.21,113.38,38.61,113.64,38.93 M114.07,37.03c0.14-0.19,0.33-0.28,0.55-0.28
			c0.23,0,0.42,0.09,0.56,0.28c0.14,0.18,0.21,0.43,0.21,0.73c0,0.31-0.07,0.55-0.21,0.73c-0.14,0.18-0.33,0.27-0.56,0.27
			c-0.23,0-0.42-0.09-0.56-0.28c-0.14-0.18-0.2-0.43-0.2-0.75C113.86,37.45,113.93,37.21,114.07,37.03 M116.63,39.33h0.59V37.7
			c0-0.6,0.16-0.9,0.49-0.9c0.11,0,0.22,0.05,0.33,0.15l0.27-0.67c-0.17-0.12-0.34-0.19-0.49-0.19c-0.12,0-0.22,0.02-0.31,0.08
			c-0.08,0.06-0.18,0.15-0.29,0.29v-0.29h-0.59V39.33z M122.79,35.05v-0.71h-2.49v0.71h0.94v4.28h0.62v-4.28H122.79z M123.04,39.33
			h0.6V37.7c0-0.6,0.16-0.9,0.49-0.9c0.11,0,0.21,0.05,0.33,0.15l0.28-0.67c-0.17-0.12-0.34-0.19-0.49-0.19
			c-0.12,0-0.22,0.02-0.31,0.08c-0.09,0.06-0.18,0.15-0.29,0.29v-0.29h-0.6V39.33z M126.93,36.54c-0.24-0.3-0.5-0.45-0.8-0.45
			c-0.35,0-0.64,0.16-0.87,0.47c-0.23,0.31-0.35,0.71-0.35,1.18c0,0.48,0.12,0.88,0.35,1.2c0.23,0.31,0.53,0.47,0.88,0.47
			c0.28,0,0.55-0.14,0.79-0.42v0.33h0.6v-3.15h-0.6V36.54z M125.72,37.03c0.14-0.19,0.31-0.28,0.51-0.28c0.22,0,0.39,0.09,0.53,0.28
			c0.13,0.19,0.2,0.44,0.2,0.73c0,0.29-0.07,0.54-0.2,0.73c-0.14,0.19-0.32,0.28-0.54,0.28c-0.21,0-0.38-0.09-0.51-0.28
			c-0.13-0.19-0.2-0.44-0.2-0.74C125.52,37.46,125.59,37.23,125.72,37.03 M130.18,36.55c-0.24-0.3-0.5-0.45-0.81-0.45
			c-0.35,0-0.64,0.16-0.87,0.48c-0.23,0.31-0.35,0.7-0.35,1.17c0,0.48,0.11,0.88,0.35,1.2c0.23,0.31,0.52,0.47,0.88,0.47
			c0.29,0,0.56-0.14,0.79-0.42v0.33h0.6v-5.46h-0.6V36.55z M128.97,37.03c0.14-0.19,0.3-0.28,0.51-0.28c0.22,0,0.39,0.09,0.53,0.28
			c0.13,0.19,0.2,0.44,0.2,0.73c0,0.29-0.07,0.54-0.2,0.73c-0.14,0.19-0.32,0.28-0.54,0.28c-0.21,0-0.38-0.09-0.51-0.28
			c-0.13-0.19-0.2-0.44-0.2-0.74C128.77,37.46,128.83,37.23,128.97,37.03 M131.53,39.33h0.6v-3.15h-0.6V39.33z M131.56,35.21
			c0.07,0.09,0.16,0.14,0.27,0.14c0.11,0,0.2-0.05,0.27-0.14c0.08-0.09,0.12-0.2,0.12-0.34c0-0.13-0.03-0.25-0.12-0.33
			c-0.07-0.09-0.16-0.14-0.27-0.14c-0.1,0-0.19,0.04-0.27,0.14c-0.08,0.09-0.11,0.2-0.11,0.33C131.44,35,131.48,35.11,131.56,35.21
			 M132.88,39.33h0.59v-1.51c0-0.39,0.04-0.67,0.12-0.83c0.08-0.16,0.23-0.24,0.42-0.24c0.18,0,0.31,0.06,0.38,0.18
			c0.07,0.12,0.11,0.33,0.11,0.64v1.75h0.59V37.4c0-0.45-0.07-0.76-0.22-0.96c-0.17-0.23-0.4-0.35-0.7-0.35
			c-0.26,0-0.5,0.13-0.7,0.37v-0.29h-0.59V39.33z M138.34,36.17h-0.6v0.35c-0.22-0.29-0.48-0.44-0.8-0.44
			c-0.38,0-0.67,0.17-0.9,0.51c-0.21,0.32-0.31,0.71-0.31,1.17c0,0.47,0.11,0.86,0.34,1.17c0.22,0.31,0.51,0.47,0.86,0.47
			c0.31,0,0.58-0.15,0.82-0.45v0.44c0,0.65-0.22,0.97-0.65,0.97c-0.24,0-0.42-0.1-0.54-0.3c-0.06-0.08-0.09-0.2-0.11-0.36h-0.6
			c0.04,0.41,0.17,0.74,0.4,0.97c0.22,0.23,0.5,0.34,0.85,0.34c0.41,0,0.73-0.17,0.96-0.49c0.12-0.17,0.21-0.37,0.25-0.61
			c0.02-0.09,0.03-0.19,0.03-0.3c0.01-0.11,0.01-0.24,0.01-0.39V36.17z M137.59,38.46c-0.13,0.2-0.31,0.3-0.54,0.3
			c-0.23,0-0.41-0.1-0.53-0.3c-0.12-0.18-0.18-0.42-0.18-0.7c0-0.29,0.06-0.53,0.18-0.71c0.13-0.2,0.31-0.3,0.53-0.3
			c0.21,0,0.39,0.09,0.52,0.28c0.13,0.18,0.2,0.42,0.2,0.73C137.77,38.05,137.71,38.28,137.59,38.46"/>
		<path class="st5" d="M40.49,26.84c-0.19,0.06-0.37,0.09-0.53,0.09c-0.27,0-0.41-0.09-0.41-0.28c0-0.13,0.07-0.27,0.2-0.43
			c0.12-0.12,0.24-0.24,0.36-0.37c0.13,0.05,0.28,0.16,0.46,0.32c0.18,0.16,0.27,0.29,0.27,0.39
			C40.84,26.67,40.73,26.76,40.49,26.84 M40.32,25.07c-0.28,0.33-0.56,0.66-0.85,0.99c-0.37,0.45-0.55,0.79-0.55,1.02
			c0,0.33,0.26,0.5,0.76,0.5c0.3,0,0.61-0.08,0.92-0.26c0.36-0.19,0.58-0.43,0.65-0.72c0-0.01,0.02-0.08,0.07-0.2
			c0.04-0.12,0.07-0.19,0.07-0.23c0-0.21-0.1-0.38-0.29-0.54C40.84,25.45,40.58,25.26,40.32,25.07"/>
		<path class="st5" d="M54.05,28.61c-0.07,0.12-0.12,0.2-0.16,0.25l0.79,0.43c0.13-0.22,0.24-0.39,0.35-0.52l-0.82-0.4
			C54.17,28.42,54.12,28.5,54.05,28.61"/>
		<path class="st5" d="M68.93,20.47c0.16,0,0.3-0.05,0.42-0.15c0.12-0.1,0.18-0.23,0.18-0.37c0-0.14-0.06-0.27-0.18-0.38
			c-0.12-0.1-0.26-0.16-0.42-0.16c-0.17,0-0.31,0.05-0.42,0.16c-0.12,0.11-0.17,0.23-0.17,0.38c0,0.14,0.06,0.26,0.17,0.37
			C68.64,20.41,68.77,20.47,68.93,20.47"/>
		<path class="st5" d="M44.69,25.73c-0.18-0.24-0.4-0.44-0.67-0.58c-0.09,0.31-0.15,0.56-0.19,0.74c0.34,0.23,0.53,0.35,0.55,0.38
			c0.22,0.19,0.33,0.35,0.35,0.46c0.01,0.01,0.01,0.04,0.01,0.09c0,0.07-0.03,0.18-0.11,0.34c-0.07,0.16-0.24,0.36-0.49,0.6
			c-0.25,0.24-0.48,0.42-0.68,0.53c-0.32,0.19-0.59,0.28-0.79,0.28c-0.06,0-0.12-0.01-0.19-0.02c-0.11-0.03-0.28-0.08-0.5-0.16
			c-0.22-0.08-0.34-0.12-0.36-0.12c-0.03,0-0.06,0.01-0.07,0.03v0.1c0.17,0.14,0.4,0.26,0.69,0.36c0.05,0.01,0.27,0.07,0.64,0.18
			c0.18,0.04,0.32,0.07,0.42,0.07c0.11,0,0.24-0.03,0.39-0.09c0.51-0.22,0.91-0.67,1.21-1.36c0.09-0.19,0.13-0.43,0.13-0.71
			c0-0.11-0.01-0.25-0.03-0.43C44.97,26.21,44.87,25.98,44.69,25.73"/>
		<path class="st5" d="M70.4,20.47c0.17,0,0.31-0.05,0.43-0.15c0.11-0.1,0.18-0.23,0.18-0.37c0-0.14-0.06-0.27-0.18-0.38
			c-0.12-0.1-0.26-0.16-0.43-0.16c-0.16,0-0.3,0.05-0.42,0.16c-0.11,0.11-0.17,0.23-0.17,0.38c0,0.14,0.06,0.26,0.18,0.37
			C70.1,20.41,70.24,20.47,70.4,20.47"/>
		<path class="st5" d="M40.06,24.12c0.36,0.2,0.61,0.34,0.78,0.41c0.1-0.17,0.21-0.34,0.33-0.5c-0.09-0.04-0.23-0.11-0.41-0.21
			c-0.18-0.1-0.32-0.17-0.41-0.21c-0.15,0.2-0.24,0.32-0.27,0.37c-0.33-0.18-0.58-0.32-0.76-0.41c-0.13,0.17-0.25,0.34-0.35,0.52
			l0.84,0.43L40.06,24.12z"/>
		<path class="st5" d="M58.29,24.39l0.75,0.39c0.13-0.17,0.25-0.34,0.36-0.52c-0.09-0.04-0.23-0.11-0.42-0.2
			c-0.19-0.09-0.33-0.16-0.42-0.2c-0.13,0.18-0.21,0.3-0.24,0.34c-0.35-0.17-0.61-0.3-0.77-0.38c-0.09,0.11-0.2,0.29-0.33,0.53
			l0.81,0.42C58.09,24.63,58.18,24.51,58.29,24.39"/>
		<path class="st5" d="M63.96,23.64c-0.25-0.11-0.44-0.2-0.57-0.27c-0.06-0.03-0.08-0.07-0.08-0.13l0.02-0.11
			c0.01-0.07,0.01-0.11,0-0.14h-0.12c-0.21,0.29-0.36,0.52-0.45,0.68c-0.02,0.04-0.04,0.09-0.04,0.15c0,0.06,0.01,0.1,0.04,0.12
			c0.06,0.07,0.11,0.12,0.15,0.15c0.11,0.65,0.19,1.16,0.24,1.52c0.02,0.12,0.05,0.28,0.07,0.49c0.05,0.34,0.07,0.54,0.07,0.61
			c0,0.09,0,0.15-0.02,0.18c-0.01,0.02-0.02,0.04-0.02,0.05c-0.14-0.01-0.7,0-1.69,0.01h-0.09c-0.07-0.67-0.12-1.16-0.13-1.49
			c-0.02-0.26-0.03-0.45-0.05-0.58c-0.04-0.52-0.07-0.91-0.09-1.16c-0.02-0.25-0.05-0.53-0.08-0.83l-0.61,0.66l0.51,3.39h-1.35
			h-0.15c-0.11,0-0.18-0.03-0.22-0.08l0.2-1.12v-0.29c-0.3,0.26-0.52,0.48-0.64,0.64c-0.02,0.03-0.04,0.07-0.04,0.14v0.71h-1.62
			h-0.19H55.4c-0.06,0-0.11-0.04-0.16-0.11c-0.05-0.07-0.08-0.14-0.09-0.19c0.25-0.1,0.5-0.15,0.76-0.15h0.62
			c0.14-0.28,0.24-0.5,0.29-0.65H56.4c-0.36,0-0.86-0.08-1.5-0.25c-0.65-0.17-1.08-0.25-1.29-0.25c-0.02,0-0.05,0-0.11,0
			c-0.06,0-0.1,0-0.12,0c-0.13,0-0.3,0.11-0.51,0.32c-0.21,0.22-0.32,0.38-0.32,0.51v0.16c0.14-0.08,0.24-0.14,0.3-0.18
			c0.19-0.09,0.35-0.14,0.48-0.14c0.18,0,0.68,0.11,1.51,0.31c-0.19,0.16-0.45,0.3-0.77,0.42c-0.35,0.14-0.64,0.2-0.88,0.2H51.7
			h-0.23h-3.6h-0.16c-0.44,0-0.68-0.1-0.72-0.31c-0.11-0.67-0.2-1.35-0.27-2.06c-0.11-1.27-0.17-1.98-0.19-2.14
			c-0.28,0.28-0.44,0.47-0.5,0.56c-0.01,0.01-0.01,0.05-0.01,0.14l0.4,4.45h1.24h0.2h3.6h0.23h1.73c0.11,0,0.25-0.05,0.41-0.16
			c0.13-0.08,0.25-0.16,0.38-0.24c0.24-0.13,0.44-0.26,0.6-0.37c0.05,0.21,0.08,0.37,0.08,0.46c0.02,0.04,0.05,0.1,0.11,0.19
			c0.06,0.08,0.11,0.13,0.15,0.13h1.83h0.19h1.28c0.15-0.2,0.25-0.32,0.29-0.36c0.07,0.11,0.12,0.19,0.15,0.24
			c0.06,0.08,0.14,0.13,0.22,0.13h0.34h0.2h1.09c0.07,0,0.16-0.09,0.27-0.28c0.03,0.03,0.04,0.04,0.04,0.04c0,0.03,0,0.07,0.01,0.12
			c0.01,0.05,0.01,0.09,0.01,0.11h0.48h0.2h1.65c0.1-0.11,0.16-0.25,0.19-0.42c0.02-0.14,0.05-0.28,0.07-0.43
			c0.02-0.12,0.04-0.23,0.04-0.33l-0.21-2.07l0.05,0.03C63.69,24.14,63.83,23.9,63.96,23.64"/>
		<path class="st5" d="M70.51,26.04c0,0.29-0.29,0.44-0.88,0.44c-0.44,0-0.66-0.15-0.66-0.45v-3.48c0-0.28,0.22-0.42,0.66-0.42
			c0.58,0,0.88,0.14,0.88,0.42V26.04z M69.63,20.94c-0.64,0-1.13,0.14-1.46,0.43c-0.33,0.29-0.49,0.64-0.49,1.05v3.68
			c0,0.41,0.16,0.75,0.49,1.04c0.33,0.29,0.81,0.44,1.46,0.44c0.75,0,1.3-0.15,1.64-0.46c0.35-0.3,0.52-0.65,0.52-1.04v-3.69
			c0-0.4-0.17-0.74-0.52-1.02C70.94,21.08,70.38,20.94,69.63,20.94"/>
		<path class="st5" d="M82.19,28.1c-0.16,0-0.3,0.05-0.42,0.16c-0.12,0.1-0.18,0.23-0.18,0.37c0,0.15,0.06,0.27,0.18,0.38
			c0.12,0.11,0.26,0.16,0.42,0.16c0.16,0,0.31-0.05,0.42-0.16c0.12-0.11,0.18-0.23,0.18-0.38c0-0.14-0.06-0.27-0.18-0.37
			C82.49,28.16,82.35,28.1,82.19,28.1"/>
		<path class="st5" d="M81.51,26.11c0,0.24-0.13,0.36-0.4,0.36h-0.76h-0.21h-2.12h-0.21h-2.11H75.5h-0.07
			c-0.27,0-0.41-0.13-0.41-0.38v-5.15h-1.29v6.56c0,0.73-0.25,1.31-0.77,1.73l0.97,0.74c0.73-0.6,1.09-1.35,1.09-2.24V27.5
			c0.02,0.05,0.15,0.08,0.41,0.08h0.07h0.21h2.11h0.21h2.12h0.21h0.63c0.54,0,0.98-0.14,1.32-0.43c0.33-0.29,0.5-0.63,0.5-1.04
			v-5.17h-1.29V26.11z"/>
		<path class="st5" d="M80.79,28.1c-0.16,0-0.3,0.05-0.42,0.16c-0.12,0.1-0.18,0.23-0.18,0.37c0,0.15,0.06,0.27,0.18,0.38
			c0.12,0.11,0.26,0.16,0.42,0.16c0.16,0,0.31-0.05,0.42-0.16c0.12-0.11,0.18-0.23,0.18-0.38c0-0.14-0.06-0.27-0.18-0.37
			C81.09,28.16,80.95,28.1,80.79,28.1"/>
		<path class="st6" d="M85.41,20.48c0.17,0,0.31-0.05,0.43-0.16c0.12-0.1,0.18-0.23,0.18-0.37c0-0.14-0.06-0.27-0.18-0.38
			c-0.12-0.1-0.26-0.16-0.43-0.16c-0.17,0-0.31,0.05-0.42,0.16c-0.12,0.11-0.17,0.23-0.17,0.38c0,0.14,0.06,0.26,0.18,0.37
			C85.12,20.43,85.26,20.48,85.41,20.48"/>
		<path class="st5" d="M120.33,26.47c-0.68,0-1.25-0.22-1.71-0.67c-0.45-0.43-0.68-0.94-0.68-1.54c0-0.54,0.25-1.05,0.74-1.51
			c0.49-0.47,1.04-0.7,1.65-0.7V26.47z M120.39,20.95c-1.02,0-1.9,0.33-2.62,0.98c-0.72,0.65-1.08,1.44-1.08,2.34
			c0,0.9,0.36,1.67,1.07,2.33c0.71,0.65,1.57,0.98,2.59,0.98c0,0.67-0.26,1.22-0.77,1.65l0.96,0.75c0.72-0.6,1.09-1.35,1.09-2.24
			l-0.01-6.78H120.39z"/>
		<path class="st5" d="M113.91,26.05c0,0.28-0.14,0.42-0.41,0.42h-0.72v-3.93c0-0.28,0.19-0.43,0.6-0.43c0.36,0,0.54,0.14,0.54,0.43
			V26.05z M113.36,20.95c-0.6,0-1.06,0.14-1.39,0.43c-0.33,0.29-0.49,0.64-0.49,1.05v4.04c-1.15,0-1.72,0.49-1.72,1.47v2.23h1.29
			v-2.23c0-0.25,0.14-0.37,0.43-0.37h2.02c0.46,0,0.86-0.15,1.2-0.44c0.33-0.29,0.5-0.65,0.5-1.06v-3.69c0-0.4-0.18-0.74-0.52-1.02
			C114.34,21.09,113.9,20.95,113.36,20.95"/>
		<path class="st5" d="M97.77,28.09c-0.16,0-0.3,0.06-0.42,0.16c-0.12,0.11-0.18,0.23-0.18,0.37c0,0.15,0.06,0.27,0.17,0.38
			c0.12,0.1,0.26,0.16,0.42,0.16c0.17,0,0.31-0.05,0.42-0.16c0.12-0.11,0.18-0.23,0.18-0.38c0-0.14-0.06-0.27-0.18-0.37
			C98.07,28.15,97.93,28.09,97.77,28.09"/>
		<path class="st5" d="M103.13,26.11c0,0.24-0.13,0.36-0.4,0.36h-0.2h-0.21h-2.08H100c-0.26,0-0.4-0.12-0.4-0.36v-3.7
			c0-0.4-0.17-0.73-0.51-1.02c-0.34-0.28-0.94-0.42-1.79-0.42c-0.86,0-1.46,0.14-1.79,0.43c-0.33,0.29-0.49,0.64-0.49,1.05v3.13
			h1.29v-3.01c0-0.28,0.33-0.42,1-0.42c0.67,0,1.01,0.14,1.01,0.42v3.54c0,0.24-0.14,0.36-0.41,0.36h-3.5h-0.21h-2.11h-0.21h-5.11
			h-0.21h-0.08c-0.27,0-0.4-0.13-0.4-0.38v-5.15h-1.29v6.56c0,0.73-0.25,1.31-0.76,1.73l0.96,0.74c0.73-0.6,1.09-1.35,1.09-2.24
			V27.5c0.02,0.05,0.15,0.08,0.4,0.08h0.08h0.21h5.11h0.21h2.11h0.21h3.56c0.37,0,0.7-0.11,1.01-0.34c0.29,0.22,0.63,0.34,1.02,0.34
			v0H100h0.22h2.08h0.21h0.2c0.45,0,0.85-0.14,1.18-0.43c0.33-0.29,0.5-0.63,0.5-1.04v-7.15h-1.28V26.11z"/>
		<rect x="105.8" y="18.96" class="st5" width="1.28" height="8.62"/>
		<path class="st6" d="M124.29,20.48c0.17,0,0.31-0.05,0.43-0.16c0.12-0.1,0.18-0.23,0.18-0.37c0-0.14-0.06-0.27-0.18-0.38
			c-0.12-0.1-0.26-0.16-0.43-0.16c-0.16,0-0.3,0.05-0.42,0.16c-0.12,0.11-0.17,0.23-0.17,0.38c0,0.14,0.06,0.26,0.18,0.37
			C124,20.43,124.14,20.48,124.29,20.48"/>
		<path class="st5" d="M138.19,21.39c-0.34-0.28-0.94-0.42-1.79-0.42c-0.87,0-1.46,0.14-1.79,0.43c-0.33,0.29-0.49,0.64-0.49,1.05
			v3.13h1.29v-3.01c0-0.28,0.34-0.42,1-0.42c0.67,0,1.01,0.14,1.01,0.42v3.54c0,0.24-0.14,0.36-0.41,0.36h-3.57h-0.21h-2.12h-0.2
			h-5.27h-0.22h-0.07c-0.27,0-0.41-0.12-0.41-0.38v-5.15h-1.29v6.56c0,0.73-0.25,1.31-0.77,1.73l0.97,0.74
			c0.72-0.6,1.09-1.35,1.09-2.24V27.5c0.02,0.05,0.15,0.08,0.41,0.08h0.07h0.22h5.27h0.2h2.12h0.21h3.62c0.37,0,0.74-0.11,1.1-0.35
			c0.37-0.23,0.55-0.6,0.55-1.12v-3.7C138.71,22.01,138.54,21.68,138.19,21.39"/>
		<path class="st6" d="M86.07,26.36v1.14v0.24c0,0.89-0.37,1.64-1.09,2.24l-0.97-0.74c0.51-0.43,0.76-1,0.76-1.73v-6.56h1.29v5.15"
			/>
		<path class="st6" d="M124.92,26.36v1.14v0.24c0,0.89-0.37,1.64-1.09,2.24l-0.97-0.74c0.51-0.43,0.76-1,0.76-1.73v-6.56h1.29v5.15"
			/>
	</g>
</g>
</svg>
