<?xml version="1.0" encoding="utf-8"?>
<!-- Generator: Adobe Illustrator 24.3.0, SVG Export Plug-In . SVG Version: 6.00 Build 0)  -->
<svg version="1.1" id="Layer_1" xmlns="http://www.w3.org/2000/svg" xmlns:xlink="http://www.w3.org/1999/xlink" x="0px" y="0px"
	 viewBox="0 0 180 180" style="enable-background:new 0 0 180 180;" xml:space="preserve">
<style type="text/css">
	.st0{fill:#041E42;}
	.st1{display:none;fill:#FFFFFF;}
	.st2{fill:#FFFFFF;}
</style>
<rect class="st0" width="180" height="180"/>
<rect x="243" y="42.81" class="st0" width="73.19" height="67.25"/>
<g>
	<path class="st1" d="M19.02,160.98c0-47.31,0-94.62,0-141.96c47.3,0,94.6,0,141.96,0c0,47.3,0,94.63,0,141.96
		C113.69,160.98,66.36,160.98,19.02,160.98z M50.55,136.98c0.92,0.24,1.72,0.43,2.51,0.65c14.67,4.13,29.35,8.23,44.02,12.4
		c6.9,1.96,13.1,0.56,18.86-3.49c2.75-1.94,5.52-3.86,8.27-5.79c7.71-5.39,15.41-10.79,23.14-16.15c2.92-2.03,4.66-4.75,4.76-8.3
		c0.11-3.84-1.5-6.93-4.8-8.93c-3.29-2-6.77-2.1-10.12-0.18c-5.35,3.08-10.62,6.3-15.93,9.46c-2.6,1.55-5.21,3.09-7.96,4.72
		c-0.74-3.06-2.83-4.53-5.39-5.67c-7.95-3.54-15.86-7.17-23.78-10.79c-3.88-1.77-7.73-1.8-11.62,0.01
		c-1.58,0.74-3.23,1.34-4.87,1.94c-5.5,2-11.2,2.46-17.07,2.13c-0.04-0.33-0.08-0.6-0.12-0.87c-0.57-3.94-3.05-6.15-7.03-6.19
		c-3-0.03-6-0.07-9,0.04c-3.54,0.13-6.25,2.93-6.26,6.47c-0.04,10.47-0.04,20.94,0,31.41c0.02,3.58,2.88,6.39,6.44,6.45
		c3.14,0.06,6.28,0.05,9.41,0c3.26-0.06,5.89-2.42,6.32-5.67C50.49,139.53,50.48,138.37,50.55,136.98z M70.14,64.71
		c0.22,19.19,16.03,34.69,35.21,34.53c19.15-0.17,35.06-15.99,34.62-34.93c-0.52-22.39-17.17-35.18-35.65-34.79
		C85.9,29.9,70.57,43.19,70.14,64.71z"/>
	<path class="st2" d="M50.55,136.98c-0.07,1.39-0.06,2.54-0.21,3.67c-0.43,3.24-3.06,5.61-6.32,5.67c-3.14,0.06-6.28,0.06-9.41,0
		c-3.57-0.06-6.43-2.88-6.44-6.45c-0.05-10.47-0.04-20.94,0-31.41c0.01-3.55,2.73-6.34,6.26-6.47c3-0.11,6-0.07,9-0.04
		c3.97,0.04,6.45,2.25,7.03,6.19c0.04,0.27,0.07,0.53,0.12,0.87c5.87,0.33,11.56-0.13,17.07-2.13c1.64-0.6,3.29-1.2,4.87-1.94
		c3.89-1.82,7.73-1.78,11.62-0.01c7.92,3.61,15.83,7.24,23.78,10.79c2.56,1.14,4.65,2.61,5.39,5.67c2.75-1.63,5.36-3.17,7.96-4.72
		c5.31-3.16,10.58-6.38,15.93-9.46c3.35-1.93,6.83-1.83,10.12,0.18c3.3,2.01,4.91,5.1,4.8,8.93c-0.1,3.56-1.84,6.27-4.76,8.3
		c-7.73,5.36-15.43,10.77-23.14,16.15c-2.76,1.93-5.52,3.85-8.27,5.79c-5.75,4.04-11.96,5.45-18.86,3.49
		c-14.66-4.17-29.34-8.27-44.02-12.4C52.27,137.41,51.47,137.22,50.55,136.98z M50.58,113.46c-0.05,0.44-0.1,0.66-0.1,0.89
		c-0.01,5.67,0.02,11.34-0.03,17.01c-0.01,0.95,0.5,1.13,1.2,1.33c15.37,4.36,30.73,8.72,46.1,13.09c5.5,1.56,10.58,0.67,15.25-2.59
		c10.62-7.41,21.24-14.83,31.85-22.26c2.89-2.02,3.65-5.23,1.94-7.94c-1.73-2.73-5.07-3.38-8.13-1.55
		c-8.35,4.97-16.71,9.94-25.04,14.94c-0.65,0.39-1.23,0.95-1.74,1.52c-1.91,2.17-4.25,3.24-7.13,2.72
		c-5.85-1.04-11.68-2.16-17.52-3.25c-1.95-0.36-3.9-0.68-5.84-1.09c-1.32-0.28-2.07-1.32-1.9-2.48c0.18-1.27,1.17-1.98,2.61-1.86
		c0.32,0.03,0.64,0.1,0.95,0.15c7.38,1.38,14.76,2.76,22.14,4.13c1.84,0.34,3.45-0.7,3.79-2.37c0.33-1.67-0.4-2.94-2.27-3.79
		c-8-3.65-16.03-7.23-24.01-10.94c-2.98-1.38-5.77-1.37-8.76-0.01c-5.66,2.59-11.57,4.29-17.86,4.34
		C54.29,113.47,52.5,113.46,50.58,113.46z M46.04,124.2c0-4.98,0.01-9.96,0-14.93c-0.01-2.17-0.73-2.89-2.92-2.9
		c-2.67-0.01-5.35-0.03-8.02,0.01c-1.74,0.02-2.52,0.83-2.52,2.57c-0.01,10.14-0.01,20.28,0,30.42c0,1.74,0.81,2.53,2.55,2.54
		c2.63,0.02,5.26,0.01,7.88,0.01c2.35,0,3.03-0.67,3.03-3.06C46.05,133.97,46.04,129.08,46.04,124.2z"/>
	<path class="st2" d="M70.14,64.71c0.43-21.52,15.76-34.81,34.18-35.2c18.48-0.39,35.13,12.4,35.65,34.79
		c0.44,18.94-15.47,34.77-34.62,34.93C86.17,99.4,70.35,83.89,70.14,64.71z M105.1,94.61c15.61,0.04,30.09-10.93,30.43-30.51
		c0.3-16.63-13.73-30.39-30.49-30.38c-16.69,0.01-30.69,13.75-30.44,30.3C74.91,83.77,89.57,94.68,105.1,94.61z"/>
	<path class="st1" d="M50.58,113.46c1.92,0,3.71,0.01,5.5,0c6.29-0.05,12.2-1.75,17.86-4.34c2.99-1.37,5.78-1.38,8.76,0.01
		c7.98,3.7,16,7.29,24.01,10.94c1.87,0.85,2.6,2.11,2.27,3.79c-0.33,1.67-1.94,2.71-3.79,2.37c-7.38-1.36-14.76-2.75-22.14-4.13
		c-0.32-0.06-0.63-0.13-0.95-0.15c-1.44-0.12-2.43,0.59-2.61,1.86c-0.17,1.16,0.57,2.2,1.9,2.48c1.94,0.41,3.89,0.73,5.84,1.09
		c5.84,1.09,11.67,2.21,17.52,3.25c2.88,0.51,5.23-0.55,7.13-2.72c0.5-0.57,1.09-1.13,1.74-1.52c8.34-5,16.69-9.97,25.04-14.94
		c3.06-1.82,6.4-1.18,8.13,1.55c1.72,2.71,0.95,5.92-1.94,7.94c-10.61,7.43-21.22,14.85-31.85,22.26
		c-4.67,3.26-9.76,4.15-15.25,2.59c-15.36-4.37-30.73-8.73-46.1-13.09c-0.7-0.2-1.21-0.38-1.2-1.33c0.05-5.67,0.02-11.34,0.03-17.01
		C50.48,114.12,50.53,113.9,50.58,113.46z"/>
	<path class="st1" d="M46.04,124.2c0,4.89,0.01,9.77,0,14.66c0,2.38-0.68,3.05-3.03,3.06c-2.63,0-5.26,0.02-7.88-0.01
		c-1.74-0.01-2.54-0.81-2.55-2.54c-0.01-10.14-0.01-20.28,0-30.42c0-1.75,0.78-2.55,2.52-2.57c2.67-0.04,5.35-0.02,8.02-0.01
		c2.18,0.01,2.91,0.73,2.92,2.9C46.05,114.24,46.04,119.22,46.04,124.2z"/>
	<path class="st1" d="M105.1,94.61c-15.53,0.07-30.19-10.84-30.49-30.6c-0.26-16.55,13.75-30.29,30.44-30.3
		c16.76-0.01,30.78,13.75,30.49,30.38C135.19,83.68,120.71,94.65,105.1,94.61z M102.87,85.26c0,1-0.01,1.65,0,2.29
		c0.02,1.67,0.8,2.62,2.16,2.64c1.42,0.02,2.24-0.96,2.26-2.69c0.01-1.15,0.08-2.31-0.02-3.46c-0.09-1.05,0.26-1.49,1.28-1.85
		c4.41-1.57,7.03-5.7,6.79-10.46c-0.22-4.42-3.45-8.26-7.93-9.34c-1.11-0.27-2.28-0.28-3.42-0.47c-2.8-0.45-4.91-2.99-4.91-5.85
		c0-2.8,2.06-5.28,4.78-5.83c3.81-0.77,7.09,2.21,7.18,5.62c0.04,1.64,1.12,2.54,2.42,2.41c1.32-0.13,2.04-1.19,1.95-2.83
		c-0.22-4.19-2.94-7.8-7.05-9.17c-0.89-0.3-1.14-0.68-1.1-1.55c0.07-1.29,0.04-2.58,0.01-3.87c-0.04-1.53-0.9-2.48-2.2-2.49
		c-1.33-0.01-2.18,0.92-2.22,2.45c-0.02,1.2-0.08,2.4,0.02,3.59c0.09,1.09-0.26,1.58-1.33,1.95c-4.12,1.41-6.83,5.25-6.91,9.57
		c-0.08,4.26,2.57,8.31,6.62,9.78c1.4,0.51,2.96,0.64,4.46,0.83c3.66,0.46,6.06,4.07,5,7.6c-0.81,2.68-3.41,4.52-6.06,4.29
		c-3.08-0.26-5.17-2.45-5.59-5.85c-0.19-1.52-1.12-2.4-2.4-2.27c-1.29,0.13-2.12,1.2-2,2.68c0.34,3.98,2.16,7.18,5.86,8.7
		C102.63,82.55,103.29,83.59,102.87,85.26z"/>
	<path class="st2" d="M102.87,85.26c0.42-1.67-0.24-2.71-2.34-3.57c-3.7-1.52-5.52-4.72-5.86-8.7c-0.12-1.48,0.71-2.54,2-2.68
		c1.28-0.13,2.21,0.75,2.4,2.27c0.42,3.4,2.51,5.58,5.59,5.85c2.66,0.23,5.25-1.61,6.06-4.29c1.06-3.53-1.34-7.14-5-7.6
		c-1.5-0.19-3.05-0.32-4.46-0.83c-4.05-1.47-6.7-5.52-6.62-9.78c0.08-4.32,2.79-8.16,6.91-9.57c1.08-0.37,1.42-0.86,1.33-1.95
		c-0.1-1.19-0.04-2.4-0.02-3.59c0.03-1.53,0.89-2.46,2.22-2.45c1.31,0.01,2.17,0.96,2.2,2.49c0.03,1.29,0.06,2.58-0.01,3.87
		c-0.04,0.87,0.21,1.25,1.1,1.55c4.11,1.37,6.82,4.98,7.05,9.17c0.09,1.65-0.64,2.7-1.95,2.83c-1.3,0.13-2.37-0.77-2.42-2.41
		c-0.09-3.41-3.37-6.4-7.18-5.62c-2.72,0.55-4.78,3.03-4.78,5.83c0,2.86,2.11,5.39,4.91,5.85c1.13,0.18,2.3,0.2,3.42,0.47
		c4.48,1.08,7.71,4.92,7.93,9.34c0.24,4.77-2.38,8.89-6.79,10.46c-1.01,0.36-1.37,0.81-1.28,1.85c0.1,1.14,0.03,2.3,0.02,3.46
		c-0.02,1.74-0.85,2.71-2.26,2.69c-1.36-0.02-2.14-0.97-2.16-2.64C102.87,86.91,102.87,86.26,102.87,85.26z"/>
</g>
</svg>
